<svg width="84" height="69" viewBox="0 0 84 69" fill="none" xmlns="http://www.w3.org/2000/svg">
<path d="M79.6292 9.24884C79.4758 9.18218 79.3188 9.12184 79.1581 9.06784L76.2451 8.08984L79.1581 9.06784C79.3181 9.12184 79.4752 9.18218 79.6292 9.24884Z" fill="url(#paint0_linear)"/>
<path style="mix-blend-mode:multiply" d="M79.6292 9.24884C79.4758 9.18218 79.3188 9.12184 79.1581 9.06784L76.2451 8.08984L79.1581 9.06784C79.3181 9.12184 79.4752 9.18218 79.6292 9.24884Z" fill="url(#paint1_linear)"/>
<path d="M50.0571 0.691895C49.8797 0.758561 49.7024 0.835895 49.525 0.923895L33.436 8.92389L49.528 0.923895C49.7 0.841895 49.8764 0.764561 50.0571 0.691895Z" fill="url(#paint2_linear)"/>
<path d="M50.0571 0.691895C49.8797 0.758561 49.7024 0.835895 49.525 0.923895L33.436 8.92389L49.528 0.923895C49.7 0.841895 49.8764 0.764561 50.0571 0.691895Z" fill="url(#paint3_linear)"/>
<path style="mix-blend-mode:multiply" d="M50.0571 0.691895C49.8797 0.758561 49.7024 0.835895 49.525 0.923895L33.436 8.92389L49.528 0.923895C49.7 0.841895 49.8764 0.764561 50.0571 0.691895Z" fill="url(#paint4_linear)"/>
<g style="mix-blend-mode:multiply">
<path d="M25.1572 68.0177L41.7652 59.7587L55.3542 53.0007L41.7652 59.7587L25.1572 68.0177Z" fill="white"/>
</g>
<g style="mix-blend-mode:multiply">
<path d="M76.243 8.08969L75.212 7.74369L71.022 6.33569L75.212 7.74369L76.243 8.08969Z" fill="white"/>
</g>
<g style="mix-blend-mode:multiply">
<path d="M77.2412 33.1119L80.1002 24.5939L81.1722 21.4019L80.1002 24.5939L77.2412 33.1119Z" fill="white"/>
</g>
<path d="M14.37 19.3358C14.668 18.8691 14.9703 18.4091 15.277 17.9558L3.23899 23.9428C1.85297 24.6324 0.797598 25.8442 0.304958 27.3118C-0.187681 28.7794 -0.0772411 30.3826 0.611989 31.7688L6.83399 44.2758C7.30899 35.2618 9.93899 26.2448 14.37 19.3358Z" fill="#94D5E1"/>
<path d="M29.343 58.0317C21.9578 56.1384 15.0029 52.85 8.85303 48.3438L17.33 65.3897C18.0196 66.7757 19.2314 67.8312 20.6989 68.324C22.1665 68.8168 23.7697 68.7066 25.156 68.0177L41.756 59.7607C37.5653 59.6681 33.3996 59.0878 29.343 58.0317Z" fill="url(#paint5_linear)"/>
<path d="M82.3611 11.6937C82.1873 11.3893 81.9865 11.1012 81.7611 10.8327C81.6398 10.6887 81.5115 10.5507 81.3761 10.4187C80.9909 10.0421 80.555 9.72106 80.0811 9.46475C79.9365 9.38675 79.7875 9.31441 79.6341 9.24775C79.4808 9.18108 79.3231 9.11975 79.1611 9.06375L76.2481 8.08575L75.2171 7.73975C75.5391 9.65575 75.7791 11.5477 75.9391 13.3987C76.1522 13.6895 76.3405 13.9976 76.5021 14.3197C76.9795 15.1806 77.2016 16.1597 77.1424 17.1423C77.0833 18.1249 76.7453 19.0703 76.1682 19.8677C76.137 21.6662 75.9971 23.4612 75.7491 25.2427C74.4152 33.4474 71.0389 41.1848 65.9312 47.7427L68.5602 46.4357L71.4461 44.9997C71.5091 44.9687 71.5671 44.9337 71.6271 44.8997C71.7425 44.8371 71.8551 44.7704 71.9651 44.6997C73.0073 44.0536 73.8113 43.0864 74.2561 41.9437C74.2991 41.8387 74.3441 41.7348 74.3801 41.6268L77.2411 33.1107L80.1021 24.5957L81.1742 21.4027L82.8332 16.4608C82.9124 16.2251 82.9765 15.9846 83.0251 15.7407C83.0736 15.5028 83.1071 15.262 83.1252 15.0197C83.1325 14.9237 83.1368 14.8281 83.1382 14.7327C83.1395 14.6374 83.1395 14.5421 83.1382 14.4468C83.1383 14.3395 83.1326 14.2324 83.1211 14.1257C83.06 13.3873 82.8592 12.6672 82.5291 12.0037C82.4745 11.8977 82.4184 11.7944 82.3611 11.6937ZM79.7961 18.7067C79.5777 18.8166 79.3315 18.8591 79.0888 18.829C78.8462 18.7989 78.6179 18.6974 78.4329 18.5376C78.2479 18.3777 78.1145 18.1665 78.0495 17.9308C77.9845 17.695 77.9909 17.4453 78.0679 17.2132C78.1449 16.9811 78.289 16.7771 78.482 16.6269C78.675 16.4768 78.9082 16.3872 79.1521 16.3696C79.396 16.352 79.6396 16.4071 79.8521 16.528C80.0647 16.6489 80.2366 16.8301 80.3462 17.0487C80.4928 17.3419 80.5172 17.6812 80.4138 17.9922C80.3105 18.3033 80.088 18.5606 79.7951 18.7077L79.7961 18.7067Z" fill="url(#paint6_linear)"/>
<path d="M68.5601 46.4337L71.446 44.9977C71.509 44.9667 71.5671 44.9317 71.6271 44.8977C71.5661 44.9307 71.507 44.9657 71.446 44.9977L68.5601 46.4337Z" fill="url(#paint7_linear)"/>
<path style="mix-blend-mode:multiply" d="M68.5601 46.4337L71.446 44.9977C71.509 44.9667 71.5671 44.9317 71.6271 44.8977C71.5661 44.9307 71.507 44.9657 71.446 44.9977L68.5601 46.4337Z" fill="url(#paint8_linear)"/>
<path d="M68.5601 46.4337L71.446 44.9977C71.509 44.9667 71.5671 44.9317 71.6271 44.8977C71.5661 44.9307 71.507 44.9657 71.446 44.9977L68.5601 46.4337Z" fill="url(#paint9_linear)"/>
<path style="mix-blend-mode:multiply" d="M68.5601 46.4337L71.446 44.9977C71.509 44.9667 71.5671 44.9317 71.6271 44.8977C71.5661 44.9307 71.507 44.9657 71.446 44.9977L68.5601 46.4337Z" fill="url(#paint10_linear)"/>
<g style="mix-blend-mode:multiply">
<path d="M68.5601 46.4337L71.446 44.9977C71.509 44.9667 71.5671 44.9317 71.6271 44.8977C71.5661 44.9307 71.507 44.9657 71.446 44.9977L68.5601 46.4337Z" fill="white"/>
</g>
<path d="M26.1511 36.5567C25.8595 36.7069 25.6025 36.9163 25.3963 37.1714C25.1902 37.4266 25.0395 37.7218 24.9539 38.0385C24.8683 38.3551 24.8496 38.6861 24.899 39.0104C24.9485 39.3346 25.065 39.645 25.2411 39.9217C25.3575 40.2304 25.5363 40.5118 25.7664 40.7482C25.9964 40.9847 26.2727 41.1713 26.5781 41.2962C26.8835 41.4211 27.2113 41.4817 27.5411 41.4742C27.871 41.4667 28.1957 41.3913 28.4951 41.2527C29.0373 40.898 29.4305 40.3565 29.5999 39.7311C29.7692 39.1057 29.703 38.4398 29.4138 37.86C29.1247 37.2801 28.6326 36.8267 28.0312 36.5857C27.4297 36.3447 26.7606 36.3329 26.1511 36.5527V36.5567Z" fill="#6390D8"/>
<path d="M37.6858 30.7888C37.3944 30.9391 37.1374 31.1485 36.9314 31.4037C36.7253 31.6588 36.5747 31.9541 36.4891 32.2707C36.4035 32.5873 36.3848 32.9182 36.4341 33.2424C36.4835 33.5666 36.5999 33.877 36.7758 34.1538C36.8922 34.4625 37.0711 34.7438 37.3011 34.9803C37.5311 35.2168 37.8075 35.4033 38.1128 35.5282C38.4182 35.6531 38.746 35.7137 39.0758 35.7063C39.4057 35.6988 39.7304 35.6234 40.0298 35.4848C40.5699 35.129 40.961 34.5877 41.1291 33.9632C41.2971 33.3386 41.2305 32.6742 40.9419 32.0954C40.6532 31.5166 40.1625 31.0637 39.5626 30.8222C38.9626 30.5807 38.2949 30.5674 37.6858 30.7848V30.7888Z" fill="#6390D8"/>
<path d="M75.744 25.2468C75.9919 23.4652 76.1318 21.6703 76.163 19.8718C75.5869 20.6401 74.8358 21.26 73.972 21.6798C73.3389 22.0399 72.6372 22.2629 71.9124 22.3345C71.1875 22.4061 70.4558 22.3246 69.7644 22.0953C69.0731 21.866 68.4377 21.4941 67.8993 21.0035C67.3609 20.513 66.9315 19.9148 66.639 19.2478C66.2856 18.6092 66.0695 17.9038 66.0045 17.1768C65.9395 16.4498 66.027 15.7173 66.2615 15.0261C66.496 14.335 66.8723 13.7004 67.3663 13.163C67.8602 12.6257 68.461 12.1975 69.13 11.9058C70.2476 11.2701 71.5611 11.0709 72.817 11.3468C74.0728 11.6227 75.1818 12.3541 75.93 13.3998C75.769 11.5488 75.53 9.65679 75.207 7.74079L71.018 6.33478L62.508 3.47979L53.992 0.615786C53.8095 0.553995 53.6239 0.501593 53.436 0.458786C53.2487 0.416119 53.0607 0.382786 52.872 0.358786C52.6834 0.334786 52.4937 0.320119 52.303 0.314786C52.1124 0.309452 51.9227 0.313452 51.734 0.326786C51.1628 0.366257 50.6004 0.489578 50.065 0.692785C49.8877 0.759452 49.7104 0.836786 49.533 0.924786L33.433 8.92479L15.278 17.9548C14.972 18.4108 14.6697 18.8708 14.371 19.3348C9.93903 26.2448 7.30803 35.2618 6.83203 44.2798L8.85303 48.3448C15.003 52.8508 21.9579 56.1391 29.343 58.0328C33.4021 59.0898 37.5706 59.6704 41.764 59.7628L55.354 53.0048L65.932 47.7468C71.0338 41.1859 74.4075 33.4496 75.744 25.2468ZM16.695 38.1358L21.495 47.7358L18.589 49.1888L13.789 39.5888L10.624 41.1678L9.46003 38.8398L18.69 34.2268L19.854 36.5548L16.695 38.1358ZM34.668 41.1558L31.762 42.6088L31.097 41.2658C31.0149 41.905 30.7693 42.5123 30.3839 43.0289C29.9985 43.5455 29.4864 43.9539 28.897 44.2148C26.586 45.3698 23.781 44.3918 22.287 41.4008C20.793 38.4098 21.711 35.6138 24.039 34.4498C24.5983 34.1338 25.2304 33.9691 25.8728 33.9721C26.5152 33.9751 27.1457 34.1456 27.702 34.4668L27.032 33.1248L29.932 31.6698L34.668 41.1558ZM46.2 35.3708C46.5647 35.9792 46.7927 36.6597 46.8681 37.3651C46.9435 38.0705 46.8645 38.7838 46.6367 39.4556C46.4088 40.1273 46.0375 40.7415 45.5485 41.2554C45.0596 41.7694 44.4646 42.1708 43.805 42.4318C40.984 43.8418 38.435 43.3318 37.05 41.1988L39.923 39.7628C40.2517 40.0761 40.6771 40.2683 41.1295 40.3078C41.5818 40.3472 42.0341 40.2315 42.412 39.9798C43.512 39.4278 44.095 38.4168 43.297 36.8188L42.632 35.4798C42.5534 36.1177 42.3121 36.7246 41.9312 37.2423C41.5503 37.76 41.0426 38.171 40.457 38.4358C38.129 39.5998 35.324 38.6218 33.829 35.6358C32.334 32.6498 33.253 29.8488 35.581 28.6848C36.1397 28.3668 36.772 28.2011 37.4148 28.2041C38.0576 28.2071 38.6883 28.3787 39.244 28.7018L38.579 27.3588L41.485 25.9058L46.2 35.3708ZM51.223 32.8798L48.316 34.3288L43.575 24.8448L46.481 23.3918L51.223 32.8798ZM45.938 22.3078L43.032 23.7608L41.659 21.0128L44.565 19.5608L45.938 22.3078ZM57.128 30.1008C54.6 31.3658 52.19 30.8008 51.141 29.0368L54.014 27.6008C54.238 27.9092 54.5717 28.1199 54.9464 28.1895C55.3212 28.2591 55.7083 28.1822 56.028 27.9748C56.776 27.6008 56.997 27.0658 56.785 26.6438C56.02 25.1138 51.406 28.8018 49.664 25.3128C48.856 23.6978 49.571 21.6848 52.059 20.4448C54.507 19.2218 56.546 19.9018 57.667 21.6778L54.967 23.0208C54.759 22.7176 54.4401 22.5085 54.0792 22.4385C53.7182 22.3686 53.3443 22.4434 53.038 22.6468C52.358 22.9858 52.12 23.4468 52.349 23.9038C53.105 25.4168 57.703 21.7748 59.521 25.2898C60.349 26.9388 59.507 28.9108 57.132 30.1008H57.128ZM67.972 24.5128L66.494 25.2508C64.522 26.2368 62.73 26.0918 61.494 23.6278L59.609 19.8548L58.453 20.4318L57.246 18.0178L58.401 17.4328L57.855 16.3568L60.148 13.6748L61.303 15.9858L63.212 15.0388L64.419 17.4528L62.512 18.4018L64.412 22.2088C64.693 22.7698 65.049 22.8888 65.695 22.5668L66.731 22.0488L67.972 24.5128Z" fill="#6390D8"/>
<path d="M18.6939 34.2268L9.46387 38.8368L10.6269 41.1658L13.7879 39.5848L18.5879 49.1848L21.4939 47.7368L16.6939 38.1368L19.8549 36.5578L18.6939 34.2268Z" fill="white"/>
<path d="M27.6931 34.4637C27.1367 34.1425 26.5062 33.972 25.8638 33.969C25.2214 33.966 24.5894 34.1307 24.0301 34.4467C21.7011 35.6107 20.7831 38.4067 22.2781 41.3977C23.7731 44.3887 26.5781 45.3747 28.8901 44.2147C29.479 43.9533 29.9908 43.5447 30.3761 43.0282C30.7614 42.5117 31.0073 41.9047 31.0901 41.2657L31.7551 42.6077L34.6611 41.1547L29.9281 31.6697L27.0221 33.1227L27.6931 34.4637ZM28.4931 41.2497C28.1938 41.3894 27.8688 41.4656 27.5386 41.4737C27.2084 41.4817 26.8801 41.4213 26.5744 41.2963C26.2687 41.1713 25.9921 40.9843 25.7621 40.7472C25.5322 40.5102 25.3537 40.2281 25.2381 39.9187C25.0919 39.4938 25.0712 39.0358 25.1785 38.5995C25.2858 38.1632 25.5165 37.767 25.8431 37.4584C26.1697 37.1498 26.5783 36.9419 27.02 36.8595C27.4617 36.7771 27.9178 36.8237 28.3337 36.9938C28.7496 37.1638 29.1077 37.4501 29.3651 37.8184C29.6225 38.1867 29.7684 38.6214 29.7852 39.0704C29.802 39.5194 29.6891 39.9637 29.4599 40.3502C29.2308 40.7367 28.8951 41.049 28.4931 41.2497Z" fill="white"/>
<path d="M39.231 28.6978C38.6753 28.3746 38.0446 28.2029 37.4018 28.1999C36.7589 28.197 36.1266 28.3628 35.568 28.6808C33.24 29.8448 32.322 32.6408 33.816 35.6318C35.31 38.6228 38.116 39.6008 40.444 38.4318C41.0294 38.1667 41.5368 37.7556 41.9177 37.238C42.2985 36.7204 42.54 36.1136 42.619 35.4758L43.284 36.8188C44.084 38.4188 43.505 39.4278 42.399 39.9798C42.0206 40.2313 41.5678 40.3464 41.1152 40.3063C40.6626 40.2661 40.2372 40.073 39.909 39.7588L37.036 41.1948C38.421 43.3238 40.97 43.8388 43.791 42.4278C47.071 40.7888 47.454 37.9038 46.186 35.3668L41.454 25.9038L38.564 27.3558L39.231 28.6978ZM40.031 35.4838C39.7318 35.6235 39.4068 35.6998 39.0767 35.7079C38.7465 35.716 38.4183 35.6557 38.1126 35.5308C37.8069 35.4059 37.5303 35.2191 37.3003 34.9821C37.0702 34.7451 36.8918 34.4631 36.776 34.1538C36.6294 33.7293 36.6082 33.2715 36.715 32.8353C36.8218 32.399 37.0521 32.0028 37.3782 31.694C37.7043 31.3852 38.1125 31.1769 38.5539 31.0941C38.9954 31.0112 39.4513 31.0573 39.8672 31.2269C40.2831 31.3965 40.6413 31.6823 40.899 32.0501C41.1567 32.418 41.303 32.8523 41.3202 33.3011C41.3375 33.7499 41.2251 34.1941 40.9965 34.5807C40.7678 34.9673 40.4326 35.2798 40.031 35.4808V35.4838Z" fill="white"/>
<path d="M46.4813 23.393L43.5752 24.8457L48.3162 34.3297L51.2223 32.877L46.4813 23.393Z" fill="white"/>
<path d="M52.3552 23.9039C52.1262 23.4449 52.3642 22.9859 53.0442 22.6469C53.3504 22.4435 53.7244 22.3687 54.0853 22.4386C54.4462 22.5086 54.7651 22.7178 54.9732 23.0209L57.6582 21.6779C56.5362 19.9019 54.4972 19.2219 52.0502 20.4449C49.5682 21.6849 48.8572 23.6989 49.6502 25.3129C51.3922 28.7979 56.0061 25.1129 56.7711 26.6439C56.9841 27.0689 56.7632 27.6049 56.0142 27.9749C55.6943 28.1819 55.3073 28.2584 54.9327 28.1889C54.5581 28.1193 54.2244 27.9089 54.0001 27.6009L51.1272 29.0369C52.1812 30.8039 54.5872 31.3649 57.1152 30.1009C59.4942 28.9119 60.3362 26.9409 59.5102 25.2909C57.7072 21.7809 53.1102 25.4159 52.3552 23.9039Z" fill="white"/>
<path d="M64.421 22.2067L62.516 18.3997L64.416 17.4487L63.216 15.0377L61.316 15.9887L60.161 13.6777L57.861 16.3557L58.407 17.4317L57.251 18.0087L58.458 20.4227L59.614 19.8457L61.499 23.6187C62.731 26.0827 64.523 26.2277 66.499 25.2417L67.977 24.5097L66.745 22.0457L65.715 22.5637C65.058 22.8877 64.7 22.7677 64.421 22.2067Z" fill="white"/>
<path d="M44.5653 19.5551L41.6592 21.0078L43.0323 23.7547L45.9385 22.302L44.5653 19.5551Z" fill="white"/>
<defs>
<linearGradient id="paint0_linear" x1="140.254" y1="56.5198" x2="171.035" y2="56.5198" gradientUnits="userSpaceOnUse">
<stop offset="0.01" stop-color="#BE9AFF"/>
<stop offset="0.97" stop-color="#8FDCDC"/>
</linearGradient>
<linearGradient id="paint1_linear" x1="119.862" y1="-9.40643" x2="228.564" y2="-9.40643" gradientUnits="userSpaceOnUse">
<stop offset="0.01" stop-color="#BE9AFF"/>
<stop offset="0.97" stop-color="#8FDCDC"/>
</linearGradient>
<linearGradient id="paint2_linear" x1="88.8671" y1="36.9374" x2="166.371" y2="36.9374" gradientUnits="userSpaceOnUse">
<stop offset="0.01" stop-color="#BE9AFF"/>
<stop offset="0.97" stop-color="#8FDCDC"/>
</linearGradient>
<linearGradient id="paint3_linear" x1="142.403" y1="361.509" x2="232.656" y2="361.509" gradientUnits="userSpaceOnUse">
<stop offset="0.01" stop-color="#BE9AFF"/>
<stop offset="0.97" stop-color="#8FDCDC"/>
</linearGradient>
<linearGradient id="paint4_linear" x1="137.916" y1="-34.2694" x2="227.669" y2="-34.2694" gradientUnits="userSpaceOnUse">
<stop offset="0.01" stop-color="#BE9AFF"/>
<stop offset="0.97" stop-color="#8FDCDC"/>
</linearGradient>
<linearGradient id="paint5_linear" x1="88.8731" y1="73.719" x2="113.254" y2="73.719" gradientUnits="userSpaceOnUse">
<stop offset="0.01" stop-color="#8461F8"/>
<stop offset="1" stop-color="#6390D8"/>
</linearGradient>
<linearGradient id="paint6_linear" x1="91.5194" y1="39.0221" x2="122.339" y2="39.0221" gradientUnits="userSpaceOnUse">
<stop offset="0.01" stop-color="#855EF6"/>
<stop offset="0.97" stop-color="#2DB9BE"/>
</linearGradient>
<linearGradient id="paint7_linear" x1="140.249" y1="86.1964" x2="171.023" y2="86.1964" gradientUnits="userSpaceOnUse">
<stop offset="0.01" stop-color="#BE9AFF"/>
<stop offset="0.97" stop-color="#8FDCDC"/>
</linearGradient>
<linearGradient id="paint8_linear" x1="119.856" y1="15.3694" x2="228.548" y2="15.3694" gradientUnits="userSpaceOnUse">
<stop offset="0.01" stop-color="#BE9AFF"/>
<stop offset="0.97" stop-color="#8FDCDC"/>
</linearGradient>
<linearGradient id="paint9_linear" x1="140.249" y1="86.1964" x2="171.023" y2="86.1964" gradientUnits="userSpaceOnUse">
<stop offset="0.01" stop-color="#BE9AFF"/>
<stop offset="0.97" stop-color="#8FDCDC"/>
</linearGradient>
<linearGradient id="paint10_linear" x1="119.856" y1="15.3694" x2="228.548" y2="15.3694" gradientUnits="userSpaceOnUse">
<stop offset="0.01" stop-color="#BE9AFF"/>
<stop offset="0.97" stop-color="#8FDCDC"/>
</linearGradient>
</defs>
</svg>
