<svg width="1685" height="512" viewBox="0 0 1685 512" fill="none" xmlns="http://www.w3.org/2000/svg">
<path d="M297.345 0C299.233 68.076 250.548 115.304 201.92 112.342C193.907 58.015 250.542 0 297.345 0Z" fill="#6724FD"/>
<path d="M139.256 512C63.0554 511.561 0.0234375 356.009 0.0234375 276.79C0.0234375 147.386 97.0984 119.056 134.51 119.056C151.37 119.056 169.373 125.677 185.252 131.536C196.356 135.623 207.84 139.842 214.227 139.842C218.05 139.842 227.059 136.253 235.013 133.104C251.976 126.351 273.084 117.958 297.664 117.958C297.708 117.958 297.767 117.958 297.81 117.958C316.164 117.958 371.814 121.986 405.271 172.23L413.108 184.007L401.829 192.518C385.716 204.676 356.316 226.854 356.316 270.785C356.316 322.816 389.612 342.826 405.608 352.45C412.669 356.698 419.978 361.078 419.978 370.658C419.978 376.913 370.056 511.224 297.561 511.224C279.822 511.224 267.283 505.892 256.223 501.19C245.032 496.429 235.378 492.328 219.426 492.328C211.34 492.328 201.115 496.151 190.29 500.209C175.497 505.73 158.753 512 139.754 512H139.256Z" fill="#6724FD"/>
<path d="M665.534 114.171H624.226L615.583 139H596.32L636.604 32.3594H653.229L693.586 139H674.25L665.534 114.171ZM629.426 99.2295H660.334L644.88 54.9912L629.426 99.2295Z" fill="#6724FD"/>
<path d="M728.303 116.441L745.075 59.752H763.459L735.993 139H720.539L692.854 59.752H711.311L728.303 116.441Z" fill="#6724FD"/>
<path d="M820.808 139C820.026 137.486 819.343 135.021 818.757 131.603C813.093 137.511 806.159 140.465 797.956 140.465C789.997 140.465 783.503 138.194 778.474 133.653C773.444 129.112 770.93 123.497 770.93 116.808C770.93 108.36 774.055 101.891 780.305 97.3984C786.604 92.8574 795.588 90.5869 807.258 90.5869H818.171V85.3867C818.171 81.2852 817.023 78.0137 814.729 75.5723C812.434 73.082 808.942 71.8369 804.255 71.8369C800.202 71.8369 796.882 72.8623 794.294 74.9131C791.706 76.915 790.412 79.4785 790.412 82.6035H772.614C772.614 78.2578 774.055 74.2051 776.936 70.4453C779.816 66.6367 783.723 63.6582 788.654 61.5098C793.635 59.3613 799.177 58.2871 805.28 58.2871C814.558 58.2871 821.955 60.6309 827.473 65.3184C832.99 69.957 835.822 76.5 835.969 84.9473V120.689C835.969 127.818 836.97 133.507 838.972 137.755V139H820.808ZM801.252 126.183C804.768 126.183 808.063 125.328 811.14 123.619C814.265 121.91 816.608 119.615 818.171 116.734V101.793H808.576C801.984 101.793 797.028 102.94 793.708 105.235C790.388 107.53 788.728 110.777 788.728 114.977C788.728 118.395 789.851 121.129 792.097 123.18C794.392 125.182 797.443 126.183 801.252 126.183Z" fill="#6724FD"/>
<path d="M873.542 139H855.744V59.752H873.542V139ZM854.646 39.1709C854.646 36.4365 855.5 34.166 857.209 32.3594C858.967 30.5527 861.457 29.6494 864.68 29.6494C867.902 29.6494 870.393 30.5527 872.15 32.3594C873.908 34.166 874.787 36.4365 874.787 39.1709C874.787 41.8564 873.908 44.1025 872.15 45.9092C870.393 47.667 867.902 48.5459 864.68 48.5459C861.457 48.5459 858.967 47.667 857.209 45.9092C855.5 44.1025 854.646 41.8564 854.646 39.1709Z" fill="#6724FD"/>
<path d="M911.921 139H894.123V26.5H911.921V139Z" fill="#6724FD"/>
<path d="M978.718 139C977.937 137.486 977.253 135.021 976.667 131.603C971.003 137.511 964.069 140.465 955.866 140.465C947.907 140.465 941.413 138.194 936.384 133.653C931.354 129.112 928.84 123.497 928.84 116.808C928.84 108.36 931.965 101.891 938.215 97.3984C944.514 92.8574 953.498 90.5869 965.168 90.5869H976.081V85.3867C976.081 81.2852 974.934 78.0137 972.639 75.5723C970.344 73.082 966.853 71.8369 962.165 71.8369C958.112 71.8369 954.792 72.8623 952.204 74.9131C949.616 76.915 948.322 79.4785 948.322 82.6035H930.524C930.524 78.2578 931.965 74.2051 934.846 70.4453C937.727 66.6367 941.633 63.6582 946.564 61.5098C951.545 59.3613 957.087 58.2871 963.19 58.2871C972.468 58.2871 979.865 60.6309 985.383 65.3184C990.9 69.957 993.732 76.5 993.879 84.9473V120.689C993.879 127.818 994.88 133.507 996.882 137.755V139H978.718ZM959.162 126.183C962.678 126.183 965.974 125.328 969.05 123.619C972.175 121.91 974.519 119.615 976.081 116.734V101.793H966.486C959.895 101.793 954.938 102.94 951.618 105.235C948.298 107.53 946.638 110.777 946.638 114.977C946.638 118.395 947.761 121.129 950.007 123.18C952.302 125.182 955.354 126.183 959.162 126.183Z" fill="#6724FD"/>
<path d="M1082.06 100.182C1082.06 112.486 1079.3 122.276 1073.79 129.552C1068.32 136.827 1060.77 140.465 1051.15 140.465C1041.88 140.465 1034.65 137.12 1029.47 130.431L1028.6 139H1012.48V26.5H1030.28V67.3691C1035.41 61.3145 1042.32 58.2871 1051.01 58.2871C1060.68 58.2871 1068.27 61.876 1073.79 69.0537C1079.3 76.2314 1082.06 86.2656 1082.06 99.1562V100.182ZM1064.26 98.6436C1064.26 90.0498 1062.75 83.6045 1059.72 79.3076C1056.7 75.0107 1052.3 72.8623 1046.54 72.8623C1038.83 72.8623 1033.41 76.2314 1030.28 82.9697V115.636C1033.45 122.521 1038.92 125.963 1046.69 125.963C1052.25 125.963 1056.55 123.888 1059.58 119.737C1062.6 115.587 1064.17 109.312 1064.26 100.914V98.6436Z" fill="#6724FD"/>
<path d="M1115.97 139H1098.18V26.5H1115.97V139Z" fill="#6724FD"/>
<path d="M1170.32 140.465C1159.04 140.465 1149.88 136.925 1142.85 129.845C1135.87 122.716 1132.38 113.243 1132.38 101.427V99.2295C1132.38 91.3193 1133.89 84.2637 1136.92 78.0625C1140 71.8125 1144.29 66.9541 1149.81 63.4873C1155.33 60.0205 1161.48 58.2871 1168.27 58.2871C1179.06 58.2871 1187.38 61.7295 1193.24 68.6143C1199.15 75.499 1202.11 85.2402 1202.11 97.8379V105.016H1150.32C1150.86 111.559 1153.03 116.734 1156.84 120.543C1160.7 124.352 1165.53 126.256 1171.34 126.256C1179.5 126.256 1186.14 122.96 1191.27 116.368L1200.86 125.523C1197.69 130.26 1193.44 133.946 1188.12 136.583C1182.84 139.171 1176.91 140.465 1170.32 140.465ZM1168.2 72.5693C1163.31 72.5693 1159.36 74.2783 1156.33 77.6963C1153.35 81.1143 1151.45 85.875 1150.62 91.9785H1184.53V90.6602C1184.14 84.7031 1182.55 80.2109 1179.77 77.1836C1176.98 74.1074 1173.13 72.5693 1168.2 72.5693Z" fill="#6724FD"/>
<path d="M1250.01 98.6436C1250.01 90.8799 1251.54 83.8975 1254.62 77.6963C1257.7 71.4463 1262.02 66.6611 1267.58 63.3408C1273.15 59.9717 1279.55 58.2871 1286.77 58.2871C1297.47 58.2871 1306.13 61.7295 1312.78 68.6143C1319.46 75.499 1323.08 84.6299 1323.62 96.0068L1323.69 100.182C1323.69 107.994 1322.17 114.977 1319.15 121.129C1316.17 127.281 1311.87 132.042 1306.26 135.411C1300.69 138.78 1294.25 140.465 1286.92 140.465C1275.74 140.465 1266.78 136.754 1260.04 129.332C1253.35 121.861 1250.01 111.925 1250.01 99.5225V98.6436ZM1267.8 100.182C1267.8 108.336 1269.49 114.732 1272.86 119.371C1276.23 123.961 1280.92 126.256 1286.92 126.256C1292.93 126.256 1297.59 123.912 1300.91 119.225C1304.28 114.537 1305.96 107.677 1305.96 98.6436C1305.96 90.6357 1304.23 84.2881 1300.76 79.6006C1297.35 74.9131 1292.68 72.5693 1286.77 72.5693C1280.96 72.5693 1276.35 74.8887 1272.93 79.5273C1269.51 84.1172 1267.8 91.002 1267.8 100.182Z" fill="#6724FD"/>
<path d="M1355.26 59.752L1355.77 68.9072C1361.63 61.8271 1369.32 58.2871 1378.84 58.2871C1395.34 58.2871 1403.74 67.7354 1404.04 86.6318V139H1386.24V87.6572C1386.24 82.6279 1385.14 78.917 1382.94 76.5244C1380.79 74.083 1377.25 72.8623 1372.32 72.8623C1365.14 72.8623 1359.8 76.1094 1356.28 82.6035V139H1338.48V59.752H1355.26Z" fill="#6724FD"/>
<path d="M1481.89 40.4893V59.752H1495.88V72.9355H1481.89V117.174C1481.89 120.201 1482.48 122.398 1483.65 123.766C1484.87 125.084 1487.02 125.743 1490.09 125.743C1492.15 125.743 1494.22 125.499 1496.32 125.011V138.78C1492.27 139.903 1488.36 140.465 1484.6 140.465C1470.93 140.465 1464.09 132.921 1464.09 117.833V72.9355H1451.06V59.752H1464.09V40.4893H1481.89Z" fill="#6724FD"/>
<path d="M1527.08 68.3945C1532.89 61.6562 1540.24 58.2871 1549.13 58.2871C1566.02 58.2871 1574.59 67.9307 1574.84 87.2178V139H1557.04V87.877C1557.04 82.4082 1555.84 78.5508 1553.45 76.3047C1551.11 74.0098 1547.64 72.8623 1543.05 72.8623C1535.92 72.8623 1530.6 76.0361 1527.08 82.3838V139H1509.28V26.5H1527.08V68.3945Z" fill="#6724FD"/>
<path d="M1627.79 140.465C1616.51 140.465 1607.36 136.925 1600.32 129.845C1593.34 122.716 1589.85 113.243 1589.85 101.427V99.2295C1589.85 91.3193 1591.36 84.2637 1594.39 78.0625C1597.47 71.8125 1601.76 66.9541 1607.28 63.4873C1612.8 60.0205 1618.95 58.2871 1625.74 58.2871C1636.53 58.2871 1644.86 61.7295 1650.71 68.6143C1656.62 75.499 1659.58 85.2402 1659.58 97.8379V105.016H1607.79C1608.33 111.559 1610.5 116.734 1614.31 120.543C1618.17 124.352 1623 126.256 1628.82 126.256C1636.97 126.256 1643.61 122.96 1648.74 116.368L1658.33 125.523C1655.16 130.26 1650.91 133.946 1645.59 136.583C1640.31 139.171 1634.38 140.465 1627.79 140.465ZM1625.67 72.5693C1620.78 72.5693 1616.83 74.2783 1613.8 77.6963C1610.82 81.1143 1608.92 85.875 1608.09 91.9785H1642V90.6602C1641.61 84.7031 1640.02 80.2109 1637.24 77.1836C1634.46 74.1074 1630.6 72.5693 1625.67 72.5693Z" fill="#6724FD"/>
<path d="M712.556 409.618H643.708L629.304 451H597.199L664.338 273.266H692.048L759.309 451H727.082L712.556 409.618ZM652.375 384.716H703.889L678.132 310.985L652.375 384.716Z" fill="#6724FD"/>
<path d="M886.506 386.303C886.506 406.729 881.867 423.046 872.59 435.253C863.312 447.379 850.861 453.441 835.236 453.441C820.751 453.441 809.154 448.681 800.446 439.159V501.781H770.783V318.92H798.127L799.348 332.348C808.055 321.768 819.896 316.479 834.87 316.479C850.983 316.479 863.597 322.501 872.712 334.545C881.908 346.508 886.506 363.15 886.506 384.472V386.303ZM856.965 383.739C856.965 370.556 854.32 360.098 849.03 352.367C843.822 344.636 836.335 340.771 826.569 340.771C814.444 340.771 805.736 345.775 800.446 355.785V414.379C805.817 424.633 814.606 429.76 826.813 429.76C836.254 429.76 843.618 425.976 848.908 418.407C854.279 410.757 856.965 399.201 856.965 383.739Z" fill="#6724FD"/>
<path d="M1027.38 386.303C1027.38 406.729 1022.74 423.046 1013.46 435.253C1004.18 447.379 991.73 453.441 976.105 453.441C961.62 453.441 950.023 448.681 941.315 439.159V501.781H911.652V318.92H938.996L940.217 332.348C948.924 321.768 960.765 316.479 975.739 316.479C991.853 316.479 1004.47 322.501 1013.58 334.545C1022.78 346.508 1027.38 363.15 1027.38 384.472V386.303ZM997.834 383.739C997.834 370.556 995.189 360.098 989.899 352.367C984.691 344.636 977.204 340.771 967.438 340.771C955.313 340.771 946.605 345.775 941.315 355.785V414.379C946.687 424.633 955.476 429.76 967.683 429.76C977.123 429.76 984.488 425.976 989.777 418.407C995.148 410.757 997.834 399.201 997.834 383.739Z" fill="#6724FD"/>
<path d="M1210.6 405.224C1210.6 397.411 1207.84 391.389 1202.3 387.157C1196.85 382.925 1186.96 378.653 1172.64 374.34C1158.32 370.027 1146.92 365.225 1138.46 359.936C1122.26 349.763 1114.17 336.498 1114.17 320.141C1114.17 305.818 1119.99 294.018 1131.62 284.74C1143.34 275.463 1158.52 270.824 1177.16 270.824C1189.53 270.824 1200.55 273.103 1210.24 277.66C1219.92 282.217 1227.53 288.728 1233.06 297.191C1238.6 305.574 1241.36 314.892 1241.36 325.146H1210.6C1210.6 315.868 1207.67 308.625 1201.81 303.417C1196.04 298.127 1187.73 295.482 1176.91 295.482C1166.82 295.482 1158.97 297.639 1153.35 301.952C1147.82 306.265 1145.05 312.287 1145.05 320.019C1145.05 326.529 1148.06 331.981 1154.08 336.376C1160.11 340.689 1170.03 344.921 1183.87 349.071C1197.7 353.14 1208.81 357.82 1217.19 363.109C1225.58 368.318 1231.72 374.34 1235.63 381.176C1239.53 387.93 1241.49 395.865 1241.49 404.979C1241.49 419.791 1235.79 431.591 1224.4 440.38C1213.08 449.088 1197.7 453.441 1178.25 453.441C1165.4 453.441 1153.56 451.081 1142.73 446.361C1131.99 441.56 1123.61 434.968 1117.58 426.586C1111.64 418.204 1108.67 408.438 1108.67 397.289H1139.56C1139.56 407.38 1142.89 415.193 1149.57 420.727C1156.24 426.26 1165.8 429.027 1178.25 429.027C1189 429.027 1197.05 426.871 1202.42 422.558C1207.88 418.163 1210.6 412.385 1210.6 405.224Z" fill="#6724FD"/>
<path d="M1302.89 286.815V318.92H1326.2V340.893H1302.89V414.623C1302.89 419.669 1303.86 423.331 1305.82 425.609C1307.85 427.807 1311.43 428.905 1316.56 428.905C1319.98 428.905 1323.44 428.498 1326.94 427.685V450.634C1320.18 452.506 1313.67 453.441 1307.4 453.441C1284.62 453.441 1273.22 440.868 1273.22 415.722V340.893H1251.5V318.92H1273.22V286.815H1302.89Z" fill="#6724FD"/>
<path d="M1339.75 383.739C1339.75 370.8 1342.32 359.162 1347.44 348.827C1352.57 338.41 1359.77 330.435 1369.05 324.901C1378.33 319.286 1388.99 316.479 1401.03 316.479C1418.85 316.479 1433.3 322.216 1444.37 333.69C1455.52 345.165 1461.54 360.383 1462.43 379.345L1462.56 386.303C1462.56 399.324 1460.03 410.961 1454.99 421.215C1450.02 431.469 1442.86 439.403 1433.5 445.019C1424.23 450.634 1413.48 453.441 1401.28 453.441C1382.64 453.441 1367.71 447.257 1356.48 434.887C1345.33 422.436 1339.75 405.875 1339.75 385.204V383.739ZM1369.42 386.303C1369.42 399.893 1372.22 410.554 1377.84 418.285C1383.45 425.935 1391.27 429.76 1401.28 429.76C1411.29 429.76 1419.06 425.854 1424.59 418.041C1430.21 410.229 1433.01 398.795 1433.01 383.739C1433.01 370.393 1430.13 359.813 1424.35 352.001C1418.65 344.188 1410.88 340.282 1401.03 340.282C1391.35 340.282 1383.66 344.148 1377.96 351.879C1372.26 359.529 1369.42 371.003 1369.42 386.303Z" fill="#6724FD"/>
<path d="M1556.79 346.02C1552.89 345.368 1548.86 345.043 1544.71 345.043C1531.12 345.043 1521.96 350.251 1517.24 360.668V451H1487.58V318.92H1515.9L1516.63 333.69C1523.79 322.216 1533.72 316.479 1546.42 316.479C1550.65 316.479 1554.15 317.048 1556.92 318.188L1556.79 346.02Z" fill="#6724FD"/>
<path d="M1631.26 453.441C1612.46 453.441 1597.2 447.541 1585.48 435.741C1573.84 423.86 1568.02 408.072 1568.02 388.378V384.716C1568.02 371.532 1570.55 359.773 1575.59 349.438C1580.72 339.021 1587.88 330.924 1597.08 325.146C1606.27 319.368 1616.53 316.479 1627.84 316.479C1645.82 316.479 1659.7 322.216 1669.46 333.69C1679.31 345.165 1684.24 361.4 1684.24 382.396V394.359H1597.93C1598.83 405.264 1602.45 413.891 1608.8 420.238C1615.22 426.586 1623.28 429.76 1632.97 429.76C1646.56 429.76 1657.62 424.267 1666.17 413.28L1682.16 428.539C1676.87 436.433 1669.79 442.577 1660.92 446.972C1652.13 451.285 1642.24 453.441 1631.26 453.441ZM1627.72 340.282C1619.58 340.282 1612.99 343.131 1607.94 348.827C1602.98 354.524 1599.8 362.458 1598.42 372.631H1654.94V370.434C1654.29 360.505 1651.64 353.018 1647 347.973C1642.37 342.846 1635.94 340.282 1627.72 340.282Z" fill="#6724FD"/>
</svg>
