<svg width="2035" height="726" viewBox="0 0 2035 726" fill="none" xmlns="http://www.w3.org/2000/svg">
<path fill-rule="evenodd" clip-rule="evenodd" d="M1935 25H100C58.5786 25 25 58.5786 25 100V626C25 667.421 58.5786 701 100 701H1935C1976.42 701 2010 667.421 2010 626V100C2010 58.5786 1976.42 25 1935 25ZM100 0C44.7715 0 0 44.7715 0 100V626C0 681.228 44.7715 726 100 726H1935C1990.23 726 2035 681.229 2035 626V100C2035 44.7715 1990.23 0 1935 0H100Z" fill="#6724FD"/>
<path d="M285.254 619C209.053 618.561 146.021 463.009 146.021 383.79C146.021 254.386 243.096 226.056 280.508 226.056C297.368 226.056 315.371 232.677 331.25 238.536C342.354 242.623 353.838 246.842 360.225 246.842C364.048 246.842 373.057 243.253 381.011 240.104C397.974 233.351 419.082 224.958 443.662 224.958C443.706 224.958 443.765 224.958 443.808 224.958C462.162 224.958 517.812 228.986 551.269 279.23L559.106 291.007L547.827 299.518C531.714 311.676 502.314 333.854 502.314 377.785C502.314 429.816 535.61 449.826 551.606 459.45C558.667 463.698 565.976 468.078 565.976 477.658C565.976 483.913 516.054 618.224 443.559 618.224C425.82 618.224 413.281 612.892 402.221 608.19C391.03 603.429 381.376 599.328 365.424 599.328C357.338 599.328 347.113 603.151 336.288 607.209C321.495 612.73 304.751 619 285.752 619H285.254Z" fill="#6724FD"/>
<path d="M443.343 107C445.231 175.076 396.546 222.304 347.918 219.342C339.905 165.015 396.54 107 443.343 107Z" fill="#6724FD"/>
<path d="M811.532 221.171H770.224L761.581 246H742.318L782.602 139.359H799.228L839.584 246H820.248L811.532 221.171ZM775.424 206.229H806.332L790.878 161.991L775.424 206.229Z" fill="#6724FD"/>
<path d="M874.301 223.441L891.073 166.752H909.457L881.991 246H866.537L838.852 166.752H857.309L874.301 223.441Z" fill="#6724FD"/>
<path d="M966.806 246C966.024 244.486 965.341 242.021 964.755 238.603C959.091 244.511 952.157 247.465 943.954 247.465C935.995 247.465 929.501 245.194 924.472 240.653C919.442 236.112 916.928 230.497 916.928 223.808C916.928 215.36 920.053 208.891 926.303 204.398C932.602 199.857 941.586 197.587 953.256 197.587H964.169V192.387C964.169 188.285 963.021 185.014 960.727 182.572C958.432 180.082 954.94 178.837 950.253 178.837C946.2 178.837 942.88 179.862 940.292 181.913C937.704 183.915 936.41 186.479 936.41 189.604H918.612C918.612 185.258 920.053 181.205 922.934 177.445C925.814 173.637 929.721 170.658 934.652 168.51C939.633 166.361 945.175 165.287 951.278 165.287C960.556 165.287 967.953 167.631 973.471 172.318C978.988 176.957 981.82 183.5 981.967 191.947V227.689C981.967 234.818 982.968 240.507 984.97 244.755V246H966.806ZM947.25 233.183C950.766 233.183 954.062 232.328 957.138 230.619C960.263 228.91 962.606 226.615 964.169 223.734V208.793H954.574C947.982 208.793 943.026 209.94 939.706 212.235C936.386 214.53 934.726 217.777 934.726 221.977C934.726 225.395 935.849 228.129 938.095 230.18C940.39 232.182 943.441 233.183 947.25 233.183Z" fill="#6724FD"/>
<path d="M1019.54 246H1001.74V166.752H1019.54V246ZM1000.64 146.171C1000.64 143.437 1001.5 141.166 1003.21 139.359C1004.96 137.553 1007.46 136.649 1010.68 136.649C1013.9 136.649 1016.39 137.553 1018.15 139.359C1019.91 141.166 1020.79 143.437 1020.79 146.171C1020.79 148.856 1019.91 151.103 1018.15 152.909C1016.39 154.667 1013.9 155.546 1010.68 155.546C1007.46 155.546 1004.96 154.667 1003.21 152.909C1001.5 151.103 1000.64 148.856 1000.64 146.171Z" fill="#6724FD"/>
<path d="M1057.92 246H1040.12V133.5H1057.92V246Z" fill="#6724FD"/>
<path d="M1124.72 246C1123.93 244.486 1123.25 242.021 1122.67 238.603C1117 244.511 1110.07 247.465 1101.86 247.465C1093.91 247.465 1087.41 245.194 1082.38 240.653C1077.35 236.112 1074.84 230.497 1074.84 223.808C1074.84 215.36 1077.96 208.891 1084.21 204.398C1090.51 199.857 1099.5 197.587 1111.17 197.587H1122.08V192.387C1122.08 188.285 1120.93 185.014 1118.64 182.572C1116.34 180.082 1112.85 178.837 1108.16 178.837C1104.11 178.837 1100.79 179.862 1098.2 181.913C1095.61 183.915 1094.32 186.479 1094.32 189.604H1076.52C1076.52 185.258 1077.96 181.205 1080.84 177.445C1083.72 173.637 1087.63 170.658 1092.56 168.51C1097.54 166.361 1103.08 165.287 1109.19 165.287C1118.47 165.287 1125.86 167.631 1131.38 172.318C1136.9 176.957 1139.73 183.5 1139.88 191.947V227.689C1139.88 234.818 1140.88 240.507 1142.88 244.755V246H1124.72ZM1105.16 233.183C1108.68 233.183 1111.97 232.328 1115.05 230.619C1118.17 228.91 1120.52 226.615 1122.08 223.734V208.793H1112.48C1105.89 208.793 1100.94 209.94 1097.62 212.235C1094.3 214.53 1092.64 217.777 1092.64 221.977C1092.64 225.395 1093.76 228.129 1096 230.18C1098.3 232.182 1101.35 233.183 1105.16 233.183Z" fill="#6724FD"/>
<path d="M1228.06 207.182C1228.06 219.486 1225.3 229.276 1219.78 236.552C1214.32 243.827 1206.77 247.465 1197.15 247.465C1187.88 247.465 1180.65 244.12 1175.47 237.431L1174.59 246H1158.48V133.5H1176.28V174.369C1181.41 168.314 1188.31 165.287 1197.01 165.287C1206.67 165.287 1214.27 168.876 1219.78 176.054C1225.3 183.231 1228.06 193.266 1228.06 206.156V207.182ZM1210.26 205.644C1210.26 197.05 1208.75 190.604 1205.72 186.308C1202.69 182.011 1198.3 179.862 1192.54 179.862C1184.82 179.862 1179.4 183.231 1176.28 189.97V222.636C1179.45 229.521 1184.92 232.963 1192.68 232.963C1198.25 232.963 1202.55 230.888 1205.58 226.737C1208.6 222.587 1210.17 216.312 1210.26 207.914V205.644Z" fill="#6724FD"/>
<path d="M1261.97 246H1244.17V133.5H1261.97V246Z" fill="#6724FD"/>
<path d="M1316.32 247.465C1305.04 247.465 1295.88 243.925 1288.85 236.845C1281.87 229.716 1278.38 220.243 1278.38 208.427V206.229C1278.38 198.319 1279.89 191.264 1282.92 185.062C1286 178.812 1290.29 173.954 1295.81 170.487C1301.33 167.021 1307.48 165.287 1314.27 165.287C1325.06 165.287 1333.38 168.729 1339.24 175.614C1345.15 182.499 1348.1 192.24 1348.1 204.838V212.016H1296.32C1296.86 218.559 1299.03 223.734 1302.84 227.543C1306.7 231.352 1311.53 233.256 1317.34 233.256C1325.5 233.256 1332.14 229.96 1337.26 223.368L1346.86 232.523C1343.69 237.26 1339.44 240.946 1334.12 243.583C1328.84 246.171 1322.91 247.465 1316.32 247.465ZM1314.19 179.569C1309.31 179.569 1305.36 181.278 1302.33 184.696C1299.35 188.114 1297.45 192.875 1296.62 198.979H1330.53V197.66C1330.14 191.703 1328.55 187.211 1325.77 184.184C1322.98 181.107 1319.12 179.569 1314.19 179.569Z" fill="#6724FD"/>
<path d="M1396 205.644C1396 197.88 1397.54 190.897 1400.62 184.696C1403.7 178.446 1408.02 173.661 1413.58 170.341C1419.15 166.972 1425.55 165.287 1432.77 165.287C1443.47 165.287 1452.13 168.729 1458.77 175.614C1465.46 182.499 1469.08 191.63 1469.61 203.007L1469.69 207.182C1469.69 214.994 1468.17 221.977 1465.15 228.129C1462.17 234.281 1457.87 239.042 1452.25 242.411C1446.69 245.78 1440.24 247.465 1432.92 247.465C1421.74 247.465 1412.78 243.754 1406.04 236.332C1399.35 228.861 1396 218.925 1396 206.522V205.644ZM1413.8 207.182C1413.8 215.336 1415.49 221.732 1418.86 226.371C1422.23 230.961 1426.91 233.256 1432.92 233.256C1438.92 233.256 1443.59 230.912 1446.91 226.225C1450.28 221.537 1451.96 214.677 1451.96 205.644C1451.96 197.636 1450.23 191.288 1446.76 186.601C1443.34 181.913 1438.68 179.569 1432.77 179.569C1426.96 179.569 1422.35 181.889 1418.93 186.527C1415.51 191.117 1413.8 198.002 1413.8 207.182Z" fill="#6724FD"/>
<path d="M1501.25 166.752L1501.77 175.907C1507.63 168.827 1515.32 165.287 1524.84 165.287C1541.34 165.287 1549.74 174.735 1550.03 193.632V246H1532.24V194.657C1532.24 189.628 1531.14 185.917 1528.94 183.524C1526.79 181.083 1523.25 179.862 1518.32 179.862C1511.14 179.862 1505.79 183.109 1502.28 189.604V246H1484.48V166.752H1501.25Z" fill="#6724FD"/>
<path d="M1627.89 147.489V166.752H1641.88V179.936H1627.89V224.174C1627.89 227.201 1628.48 229.398 1629.65 230.766C1630.87 232.084 1633.02 232.743 1636.09 232.743C1638.14 232.743 1640.22 232.499 1642.32 232.011V245.78C1638.27 246.903 1634.36 247.465 1630.6 247.465C1616.93 247.465 1610.09 239.921 1610.09 224.833V179.936H1597.05V166.752H1610.09V147.489H1627.89Z" fill="#6724FD"/>
<path d="M1673.08 175.395C1678.89 168.656 1686.24 165.287 1695.13 165.287C1712.02 165.287 1720.59 174.931 1720.83 194.218V246H1703.04V194.877C1703.04 189.408 1701.84 185.551 1699.45 183.305C1697.1 181.01 1693.64 179.862 1689.05 179.862C1681.92 179.862 1676.6 183.036 1673.08 189.384V246H1655.28V133.5H1673.08V175.395Z" fill="#6724FD"/>
<path d="M1773.79 247.465C1762.51 247.465 1753.35 243.925 1746.32 236.845C1739.34 229.716 1735.85 220.243 1735.85 208.427V206.229C1735.85 198.319 1737.36 191.264 1740.39 185.062C1743.47 178.812 1747.76 173.954 1753.28 170.487C1758.8 167.021 1764.95 165.287 1771.74 165.287C1782.53 165.287 1790.85 168.729 1796.71 175.614C1802.62 182.499 1805.58 192.24 1805.58 204.838V212.016H1753.79C1754.33 218.559 1756.5 223.734 1760.31 227.543C1764.17 231.352 1769 233.256 1774.81 233.256C1782.97 233.256 1789.61 229.96 1794.74 223.368L1804.33 232.523C1801.16 237.26 1796.91 240.946 1791.59 243.583C1786.31 246.171 1780.38 247.465 1773.79 247.465ZM1771.66 179.569C1766.78 179.569 1762.83 181.278 1759.8 184.696C1756.82 188.114 1754.92 192.875 1754.09 198.979H1788V197.66C1787.61 191.703 1786.02 187.211 1783.24 184.184C1780.45 181.107 1776.6 179.569 1771.66 179.569Z" fill="#6724FD"/>
<path d="M858.554 516.618H789.706L775.302 558H743.197L810.336 380.266H838.046L905.307 558H873.08L858.554 516.618ZM798.373 491.716H849.887L824.13 417.985L798.373 491.716Z" fill="#6724FD"/>
<path d="M1032.5 493.303C1032.5 513.729 1027.87 530.046 1018.59 542.253C1009.31 554.379 996.859 560.441 981.234 560.441C966.749 560.441 955.152 555.681 946.444 546.159V608.781H916.781V425.92H944.125L945.346 439.348C954.053 428.768 965.894 423.479 980.868 423.479C996.981 423.479 1009.6 429.501 1018.71 441.545C1027.91 453.508 1032.5 470.15 1032.5 491.472V493.303ZM1002.96 490.739C1002.96 477.556 1000.32 467.098 995.028 459.367C989.82 451.636 982.333 447.771 972.567 447.771C960.442 447.771 951.734 452.775 946.444 462.785V521.379C951.815 531.633 960.604 536.76 972.812 536.76C982.252 536.76 989.617 532.976 994.906 525.407C1000.28 517.757 1002.96 506.201 1002.96 490.739Z" fill="#6724FD"/>
<path d="M1173.37 493.303C1173.37 513.729 1168.73 530.046 1159.46 542.253C1150.18 554.379 1137.73 560.441 1122.1 560.441C1107.62 560.441 1096.02 555.681 1087.31 546.159V608.781H1057.65V425.92H1084.99L1086.21 439.348C1094.92 428.768 1106.76 423.479 1121.74 423.479C1137.85 423.479 1150.46 429.501 1159.58 441.545C1168.78 453.508 1173.37 470.15 1173.37 491.472V493.303ZM1143.83 490.739C1143.83 477.556 1141.19 467.098 1135.9 459.367C1130.69 451.636 1123.2 447.771 1113.44 447.771C1101.31 447.771 1092.6 452.775 1087.31 462.785V521.379C1092.68 531.633 1101.47 536.76 1113.68 536.76C1123.12 536.76 1130.49 532.976 1135.78 525.407C1141.15 517.757 1143.83 506.201 1143.83 490.739Z" fill="#6724FD"/>
<path d="M1356.6 512.224C1356.6 504.411 1353.83 498.389 1348.3 494.157C1342.85 489.925 1332.96 485.653 1318.64 481.34C1304.31 477.027 1292.92 472.225 1284.46 466.936C1268.26 456.763 1260.17 443.498 1260.17 427.141C1260.17 412.818 1265.98 401.018 1277.62 391.74C1289.34 382.463 1304.52 377.824 1323.15 377.824C1335.52 377.824 1346.55 380.103 1356.23 384.66C1365.92 389.217 1373.53 395.728 1379.06 404.191C1384.6 412.574 1387.36 421.892 1387.36 432.146H1356.6C1356.6 422.868 1353.67 415.625 1347.81 410.417C1342.03 405.127 1333.73 402.482 1322.91 402.482C1312.82 402.482 1304.96 404.639 1299.35 408.952C1293.82 413.265 1291.05 419.287 1291.05 427.019C1291.05 433.529 1294.06 438.981 1300.08 443.376C1306.1 447.689 1316.03 451.921 1329.87 456.071C1343.7 460.14 1354.81 464.82 1363.19 470.109C1371.57 475.318 1377.72 481.34 1381.62 488.176C1385.53 494.93 1387.48 502.865 1387.48 511.979C1387.48 526.791 1381.79 538.591 1370.39 547.38C1359.08 556.088 1343.7 560.441 1324.25 560.441C1311.39 560.441 1299.55 558.081 1288.73 553.361C1277.99 548.56 1269.61 541.968 1263.58 533.586C1257.64 525.204 1254.67 515.438 1254.67 504.289H1285.56C1285.56 514.38 1288.89 522.193 1295.57 527.727C1302.24 533.26 1311.8 536.027 1324.25 536.027C1334.99 536.027 1343.05 533.871 1348.42 529.558C1353.87 525.163 1356.6 519.385 1356.6 512.224Z" fill="#6724FD"/>
<path d="M1448.89 393.815V425.92H1472.2V447.893H1448.89V521.623C1448.89 526.669 1449.86 530.331 1451.82 532.609C1453.85 534.807 1457.43 535.905 1462.56 535.905C1465.98 535.905 1469.43 535.498 1472.93 534.685V557.634C1466.18 559.506 1459.67 560.441 1453.4 560.441C1430.62 560.441 1419.22 547.868 1419.22 522.722V447.893H1397.49V425.92H1419.22V393.815H1448.89Z" fill="#6724FD"/>
<path d="M1485.75 490.739C1485.75 477.8 1488.31 466.162 1493.44 455.827C1498.57 445.41 1505.77 437.435 1515.05 431.901C1524.33 426.286 1534.99 423.479 1547.03 423.479C1564.85 423.479 1579.3 429.216 1590.37 440.69C1601.51 452.165 1607.54 467.383 1608.43 486.345L1608.55 493.303C1608.55 506.324 1606.03 517.961 1600.99 528.215C1596.02 538.469 1588.86 546.403 1579.5 552.019C1570.22 557.634 1559.48 560.441 1547.27 560.441C1528.64 560.441 1513.71 554.257 1502.47 541.887C1491.33 529.436 1485.75 512.875 1485.75 492.204V490.739ZM1515.41 493.303C1515.41 506.893 1518.22 517.554 1523.84 525.285C1529.45 532.935 1537.26 536.76 1547.27 536.76C1557.28 536.76 1565.06 532.854 1570.59 525.041C1576.21 517.229 1579.01 505.795 1579.01 490.739C1579.01 477.393 1576.12 466.813 1570.35 459.001C1564.65 451.188 1556.88 447.282 1547.03 447.282C1537.35 447.282 1529.66 451.148 1523.96 458.879C1518.26 466.529 1515.41 478.003 1515.41 493.303Z" fill="#6724FD"/>
<path d="M1702.79 453.02C1698.89 452.368 1694.86 452.043 1690.71 452.043C1677.12 452.043 1667.96 457.251 1663.24 467.668V558H1633.58V425.92H1661.9L1662.63 440.69C1669.79 429.216 1679.72 423.479 1692.42 423.479C1696.65 423.479 1700.15 424.048 1702.91 425.188L1702.79 453.02Z" fill="#6724FD"/>
<path d="M1777.25 560.441C1758.46 560.441 1743.2 554.541 1731.48 542.741C1719.84 530.86 1714.02 515.072 1714.02 495.378V491.716C1714.02 478.532 1716.55 466.773 1721.59 456.438C1726.72 446.021 1733.88 437.924 1743.08 432.146C1752.27 426.368 1762.53 423.479 1773.84 423.479C1791.82 423.479 1805.7 429.216 1815.46 440.69C1825.31 452.165 1830.23 468.4 1830.23 489.396V501.359H1743.93C1744.82 512.264 1748.45 520.891 1754.79 527.238C1761.22 533.586 1769.28 536.76 1778.96 536.76C1792.55 536.76 1803.62 531.267 1812.17 520.28L1828.16 535.539C1822.87 543.433 1815.79 549.577 1806.92 553.972C1798.13 558.285 1788.24 560.441 1777.25 560.441ZM1773.71 447.282C1765.58 447.282 1758.99 450.131 1753.94 455.827C1748.98 461.524 1745.8 469.458 1744.42 479.631H1800.94V477.434C1800.29 467.505 1797.64 460.018 1793 454.973C1788.36 449.846 1781.93 447.282 1773.71 447.282Z" fill="#6724FD"/>
</svg>
