<svg width="512" height="512" viewBox="0 0 512 512" fill="none" xmlns="http://www.w3.org/2000/svg">
<g clip-path="url(#clip0)">
<path d="M225.762 328.966H71.0491C65.5274 328.966 61.0488 333.443 61.0488 338.967C61.0488 344.489 65.5263 348.967 71.0491 348.967H225.762C231.284 348.967 235.762 344.49 235.762 338.967C235.761 333.443 231.283 328.966 225.762 328.966Z" fill="#7029FC"/>
<path d="M163.985 371.522H71.0491C65.5274 371.522 61.0488 375.999 61.0488 381.523C61.0488 387.047 65.5263 391.523 71.0491 391.523H163.986C169.508 391.523 173.986 387.047 173.986 381.523C173.985 375.999 169.508 371.522 163.985 371.522Z" fill="#7029FC"/>
<path d="M229.727 183.94L246.003 199.093C247.863 200.825 250.303 201.774 252.817 201.774C253.169 201.774 253.526 201.755 253.881 201.718C256.763 201.41 259.369 199.866 261.025 197.488L283.664 164.963C286.819 160.429 285.703 154.197 281.17 151.042C276.636 147.885 270.405 149.003 267.25 153.538L251.194 176.602L243.354 169.304C239.313 165.54 232.986 165.765 229.221 169.809C225.46 173.85 225.686 180.178 229.727 183.94V183.94Z" fill="#7029FC"/>
<path d="M481.402 132.927H359.597V92.5395C359.597 87.0167 355.119 82.5392 349.596 82.5392C334.833 82.5392 322.823 70.7074 322.823 56.1648C322.823 50.6421 318.346 46.1646 312.823 46.1646H199.178C193.656 46.1646 189.178 50.6411 189.178 56.1648C189.178 70.7064 177.167 82.5392 162.405 82.5392C156.883 82.5392 152.404 87.0157 152.404 92.5395V132.927H30.5989C13.727 132.927 0 146.654 0 163.526V424.895C0 447.468 18.3654 465.835 40.9392 465.835H471.057C493.633 465.835 512 447.467 512 424.89V163.526C512.001 146.654 498.274 132.927 481.402 132.927ZM172.404 101.473C190.154 97.6251 204.17 83.7534 208.084 66.1661H303.918C307.831 83.7534 321.847 97.6251 339.597 101.473V202.687C339.597 227.629 324.729 250.391 301.719 260.675L256.001 281.112L210.282 260.675C187.272 250.39 172.404 227.629 172.404 202.687V101.473ZM19.9996 163.526C19.9996 157.682 24.7543 152.927 30.5989 152.927H152.405V189.524H19.9996V163.526ZM19.9996 209.524H152.688C153.914 224.287 159.076 238.249 167.334 250.128H19.9996V209.524ZM492.001 424.891C492.001 436.44 482.605 445.835 471.059 445.835H40.9392C29.3927 445.835 20.0006 436.441 20.0006 424.896V270.128H186.906C191.597 273.543 196.686 276.504 202.122 278.935L251.921 301.196C253.22 301.777 254.609 302.067 256.002 302.067C257.394 302.067 258.783 301.777 260.082 301.196L309.881 278.935C315.316 276.505 320.405 273.543 325.097 270.128H492.002V424.891H492.001ZM492.001 250.128H344.666C352.925 238.249 358.088 224.287 359.312 209.524H492V250.128H492.001ZM492.001 189.524H359.597V152.927H481.403C487.247 152.927 492.002 157.681 492.002 163.526V189.524H492.001Z" fill="#292C40"/>
<path d="M404.734 405.447C432.813 405.447 455.658 382.613 455.658 354.545C455.658 326.477 432.813 303.644 404.734 303.644C376.654 303.644 353.811 326.477 353.811 354.545C353.812 382.613 376.654 405.447 404.734 405.447ZM404.734 323.643C421.786 323.643 435.657 337.505 435.657 354.545C435.657 371.584 421.786 385.447 404.734 385.447C387.683 385.447 373.811 371.585 373.811 354.545C373.811 337.506 387.684 323.643 404.734 323.643Z" fill="#7029FC"/>
</g>
<defs>
<clipPath id="clip0">
<rect width="512" height="512" fill="white"/>
</clipPath>
</defs>
</svg>
