<svg width="512" height="512" viewBox="0 0 512 512" fill="none" xmlns="http://www.w3.org/2000/svg">
<g clip-path="url(#clip0)">
<path d="M401.042 325.971H346.878C348.285 324.785 349.653 323.533 350.975 322.21C383.437 289.745 373.891 229.988 373.469 227.46C372.765 223.248 369.465 219.948 365.254 219.244C362.726 218.822 302.974 209.275 270.513 241.74C268.908 243.345 267.406 245.017 266.001 246.745V164.3C268.3 163.028 270.622 161.757 271.833 161.134C321.372 135.6 350.052 111.109 350.052 61.485C350.05 27.582 323.98 0 291.937 0C278.499 0 265.813 4.76 255.536 13.538C245.261 4.76 232.576 0 219.136 0C187.089 0 161.017 27.582 161.017 61.485C161.017 111.11 189.699 135.601 239.248 161.138C240.617 161.842 243.421 163.384 245.999 164.815V211.396C245.818 211.21 245.636 211.024 245.452 210.84C218.473 183.859 169.14 191.739 167.053 192.088C162.841 192.792 159.541 196.092 158.838 200.304C158.489 202.391 150.61 251.728 177.589 278.709C194.395 295.517 219.87 298.797 237.201 298.796C240.459 298.796 243.429 298.68 246 298.516V325.97H110.958C105.435 325.97 100.958 330.447 100.958 335.97V385.09C100.958 390.613 105.435 395.09 110.958 395.09H130.542L150.948 503.843C151.836 508.572 155.965 511.999 160.777 511.999H351.224C356.036 511.999 360.165 508.572 361.053 503.843L381.459 395.09H401.043C406.566 395.09 411.043 390.613 411.043 385.09V335.97C411.042 330.448 406.565 325.971 401.042 325.971ZM245.249 278.508C232.45 279.383 206.279 279.117 191.733 264.569C177.158 249.992 176.919 223.754 177.798 210.983C192.46 209.965 217.67 211.341 231.31 224.983C245.861 239.535 246.123 265.713 245.249 278.508ZM284.655 255.882C304.073 236.462 339.295 236.901 354.566 238.146C355.813 253.43 356.25 288.649 336.833 308.068C324.318 320.584 305.241 324.851 289.169 325.97H280.895L310.337 296.525C314.242 292.619 314.242 286.288 310.337 282.383C306.432 278.478 300.099 278.478 296.195 282.383L266.39 312.191C266.512 294.869 269.74 270.798 284.655 255.882ZM181.017 61.485C181.017 38.61 198.117 20 219.136 20C229.333 20 238.917 24.335 246.13 32.215C248.542 34.845 251.97 36.353 255.536 36.353H255.543C259.111 36.351 262.539 34.84 264.946 32.209C272.154 24.336 281.74 20 291.937 20C312.953 20 330.051 38.61 330.051 61.485C330.051 97.171 313.678 117.065 262.676 143.353C261.073 144.178 258.118 145.8 255.535 147.233C252.954 145.8 250.003 144.179 248.404 143.357C197.392 117.066 181.017 97.172 181.017 61.485ZM342.925 492H169.075L150.892 395.091H361.109L342.925 492ZM391.042 375.091H120.958V345.971H391.043V375.091H391.042Z" fill="#292C40"/>
</g>
<defs>
<clipPath id="clip0">
<rect width="512" height="512" fill="white"/>
</clipPath>
</defs>
</svg>
