<svg width="2199" height="726" viewBox="0 0 2199 726" fill="none" xmlns="http://www.w3.org/2000/svg">
<path fill-rule="evenodd" clip-rule="evenodd" d="M2099 25H100C58.5786 25 25 58.5786 25 100V626C25 667.421 58.5787 701 100 701H2099C2140.42 701 2174 667.421 2174 626V100C2174 58.5787 2140.42 25 2099 25ZM100 0C44.7715 0 0 44.7715 0 100V626C0 681.228 44.7716 726 100 726H2099C2154.23 726 2199 681.229 2199 626V100C2199 44.7715 2154.23 0 2099 0H100Z" fill="#6724FD"/>
<path d="M217.201 113.525C204.011 105.585 188.29 104.875 174.58 111.485L404.452 341.847L479.613 266.337L217.201 113.525ZM153.46 132.805C150.56 138.945 149 145.775 149 152.805V574.19C149 581.25 150.57 587.98 153.5 593.99L383.282 363.117L153.46 132.805ZM404.483 384.358L174.981 614.95C181.071 617.77 187.551 619 194.021 619C202.012 619 209.982 617.09 217.202 612.75L479.664 459.708L404.483 384.358ZM579.555 324.537C579.465 324.477 579.365 324.417 579.275 324.367L506.414 281.937L425.644 363.087L506.464 444.078C506.464 444.078 579.465 401.518 579.555 401.468C593.105 393.238 601.195 378.858 601.195 362.997C601.195 347.137 593.105 332.757 579.555 324.537Z" fill="#6724FD"/>
<path d="M798.578 232.157C794.721 237.187 789.374 240.995 782.538 243.583C775.702 246.171 767.938 247.465 759.247 247.465C750.312 247.465 742.401 245.438 735.517 241.386C728.632 237.333 723.31 231.547 719.55 224.027C715.839 216.459 713.91 207.646 713.764 197.587V189.237C713.764 173.124 717.621 160.551 725.336 151.518C733.051 142.436 743.817 137.895 757.636 137.895C769.501 137.895 778.925 140.824 785.907 146.684C792.89 152.543 797.089 160.99 798.505 172.025H780.341C778.29 159.184 770.844 152.763 758.002 152.763C749.701 152.763 743.378 155.766 739.032 161.771C734.735 167.729 732.514 176.493 732.367 188.065V196.269C732.367 207.792 734.784 216.752 739.618 223.148C744.501 229.496 751.264 232.67 759.906 232.67C769.379 232.67 776.117 230.521 780.121 226.225V205.351H758.148V191.288H798.578V232.157Z" fill="#6724FD"/>
<path d="M881.269 198.393H837.47V231.205H888.666V246H818.939V139.359H888.153V154.301H837.47V183.744H881.269V198.393Z" fill="#6724FD"/>
<path d="M982.27 154.301H949.018V246H930.634V154.301H897.675V139.359H982.27V154.301Z" fill="#6724FD"/>
<path d="M1048.85 246H1030.39V139.359H1048.85V246Z" fill="#6724FD"/>
<path d="M1146.48 154.301H1113.23V246H1094.84V154.301H1061.88V139.359H1146.48V154.301Z" fill="#6724FD"/>
<path d="M1278.61 195.463C1278.61 205.912 1276.8 215.092 1273.19 223.002C1269.57 230.863 1264.4 236.918 1257.66 241.166C1250.97 245.365 1243.26 247.465 1234.52 247.465C1225.87 247.465 1218.16 245.365 1211.37 241.166C1204.63 236.918 1199.41 230.888 1195.7 223.075C1192.04 215.263 1190.18 206.254 1190.13 196.049V190.043C1190.13 179.643 1191.96 170.463 1195.62 162.504C1199.33 154.545 1204.54 148.466 1211.22 144.267C1217.96 140.019 1225.68 137.895 1234.37 137.895C1243.06 137.895 1250.75 139.994 1257.44 144.193C1264.18 148.344 1269.38 154.35 1273.04 162.211C1276.7 170.023 1278.56 179.13 1278.61 189.53V195.463ZM1260.08 189.896C1260.08 178.08 1257.83 169.022 1253.34 162.724C1248.9 156.425 1242.57 153.275 1234.37 153.275C1226.36 153.275 1220.09 156.425 1215.55 162.724C1211.05 168.974 1208.76 177.836 1208.66 189.311V195.463C1208.66 207.182 1210.93 216.239 1215.47 222.636C1220.06 229.032 1226.41 232.23 1234.52 232.23C1242.72 232.23 1249.02 229.105 1253.41 222.855C1257.86 216.605 1260.08 207.475 1260.08 195.463V189.896Z" fill="#6724FD"/>
<path d="M1381.66 246H1363.13L1315.59 170.341V246H1297.06V139.359H1315.59L1363.28 215.312V139.359H1381.66V246Z" fill="#6724FD"/>
<path d="M860.297 534.929C853.868 543.311 844.957 549.659 833.563 553.972C822.17 558.285 809.231 560.441 794.745 560.441C779.853 560.441 766.669 557.064 755.194 550.31C743.72 543.555 734.849 533.911 728.583 521.379C722.398 508.765 719.184 494.076 718.939 477.312V463.396C718.939 436.54 725.368 415.585 738.227 400.529C751.085 385.393 769.029 377.824 792.06 377.824C811.835 377.824 827.541 382.707 839.179 392.473C850.816 402.238 857.815 416.317 860.175 434.709H829.901C826.483 413.306 814.073 402.604 792.67 402.604C778.835 402.604 768.297 407.609 761.054 417.619C753.892 427.548 750.189 442.155 749.945 461.442V475.114C749.945 494.32 753.974 509.253 762.03 519.914C770.168 530.493 781.439 535.783 795.844 535.783C811.632 535.783 822.862 532.202 829.535 525.041V490.251H792.914V466.813H860.297V534.929Z" fill="#6724FD"/>
<path d="M885.81 490.739C885.81 477.8 888.373 466.162 893.5 455.827C898.627 445.41 905.829 437.435 915.106 431.901C924.384 426.286 935.045 423.479 947.089 423.479C964.911 423.479 979.356 429.216 990.424 440.69C1001.57 452.165 1007.6 467.383 1008.49 486.345L1008.61 493.303C1008.61 506.324 1006.09 517.961 1001.04 528.215C996.08 538.469 988.918 546.403 979.56 552.019C970.282 557.634 959.54 560.441 947.333 560.441C928.697 560.441 913.764 554.257 902.533 541.887C891.384 529.436 885.81 512.875 885.81 492.204V490.739ZM915.473 493.303C915.473 506.893 918.28 517.554 923.896 525.285C929.511 532.935 937.323 536.76 947.333 536.76C957.343 536.76 965.115 532.854 970.648 525.041C976.264 517.229 979.071 505.795 979.071 490.739C979.071 477.393 976.182 466.813 970.404 459.001C964.708 451.188 956.936 447.282 947.089 447.282C937.405 447.282 929.714 451.148 924.018 458.879C918.321 466.529 915.473 478.003 915.473 493.303Z" fill="#6724FD"/>
<path d="M1028.14 490.739C1028.14 477.8 1030.71 466.162 1035.83 455.827C1040.96 445.41 1048.16 437.435 1057.44 431.901C1066.72 426.286 1077.38 423.479 1089.42 423.479C1107.25 423.479 1121.69 429.216 1132.76 440.69C1143.91 452.165 1149.93 467.383 1150.82 486.345L1150.95 493.303C1150.95 506.324 1148.42 517.961 1143.38 528.215C1138.41 538.469 1131.25 546.403 1121.89 552.019C1112.62 557.634 1101.87 560.441 1089.67 560.441C1071.03 560.441 1056.1 554.257 1044.87 541.887C1033.72 529.436 1028.14 512.875 1028.14 492.204V490.739ZM1057.81 493.303C1057.81 506.893 1060.61 517.554 1066.23 525.285C1071.84 532.935 1079.66 536.76 1089.67 536.76C1099.68 536.76 1107.45 532.854 1112.98 525.041C1118.6 517.229 1121.41 505.795 1121.41 490.739C1121.41 477.393 1118.52 466.813 1112.74 459.001C1107.04 451.188 1099.27 447.282 1089.42 447.282C1079.74 447.282 1072.05 451.148 1066.35 458.879C1060.65 466.529 1057.81 478.003 1057.81 493.303Z" fill="#6724FD"/>
<path d="M1170.84 490.983C1170.84 470.476 1175.65 454.118 1185.25 441.911C1194.93 429.623 1207.75 423.479 1223.7 423.479C1238.76 423.479 1250.6 428.728 1259.22 439.226L1260.57 425.92H1287.3V553.972C1287.3 571.306 1281.89 584.978 1271.06 594.987C1260.32 604.997 1245.79 610.002 1227.48 610.002C1217.8 610.002 1208.32 607.967 1199.04 603.898C1189.85 599.911 1182.85 594.662 1178.05 588.151L1192.08 570.329C1201.2 581.153 1212.43 586.564 1225.78 586.564C1235.62 586.564 1243.39 583.879 1249.09 578.508C1254.79 573.218 1257.64 565.406 1257.64 555.07V546.159C1249.09 555.681 1237.7 560.441 1223.46 560.441C1207.99 560.441 1195.34 554.297 1185.49 542.009C1175.73 529.72 1170.84 512.712 1170.84 490.983ZM1200.38 493.547C1200.38 506.812 1203.07 517.269 1208.44 524.919C1213.89 532.487 1221.42 536.271 1231.02 536.271C1242.99 536.271 1251.86 531.145 1257.64 520.891V462.785C1252.02 452.775 1243.23 447.771 1231.27 447.771C1221.5 447.771 1213.89 451.636 1208.44 459.367C1203.07 467.098 1200.38 478.492 1200.38 493.547Z" fill="#6724FD"/>
<path d="M1349.43 558H1319.77V370.5H1349.43V558Z" fill="#6724FD"/>
<path d="M1440.01 560.441C1421.21 560.441 1405.95 554.541 1394.23 542.741C1382.6 530.86 1376.78 515.072 1376.78 495.378V491.716C1376.78 478.532 1379.3 466.773 1384.34 456.438C1389.47 446.021 1396.63 437.924 1405.83 432.146C1415.03 426.368 1425.28 423.479 1436.59 423.479C1454.58 423.479 1468.45 429.216 1478.22 440.69C1488.06 452.165 1492.99 468.4 1492.99 489.396V501.359H1406.68C1407.58 512.264 1411.2 520.891 1417.55 527.238C1423.98 533.586 1432.03 536.76 1441.72 536.76C1455.31 536.76 1466.38 531.267 1474.92 520.28L1490.91 535.539C1485.62 543.433 1478.54 549.577 1469.67 553.972C1460.88 558.285 1451 560.441 1440.01 560.441ZM1436.47 447.282C1428.33 447.282 1421.74 450.131 1416.69 455.827C1411.73 461.524 1408.56 469.458 1407.17 479.631H1463.69V477.434C1463.04 467.505 1460.39 460.018 1455.76 454.973C1451.12 449.846 1444.69 447.282 1436.47 447.282Z" fill="#6724FD"/>
<path d="M1612.13 491.96V558H1581.24V380.266H1649.24C1669.09 380.266 1684.84 385.433 1696.48 395.769C1708.2 406.104 1714.06 419.776 1714.06 436.784C1714.06 454.2 1708.32 467.749 1696.84 477.434C1685.45 487.118 1669.46 491.96 1648.87 491.96H1612.13ZM1612.13 467.18H1649.24C1660.22 467.18 1668.61 464.616 1674.38 459.489C1680.16 454.281 1683.05 446.794 1683.05 437.028C1683.05 427.425 1680.12 419.776 1674.26 414.079C1668.4 408.301 1660.35 405.331 1650.09 405.168H1612.13V467.18Z" fill="#6724FD"/>
<path d="M1769.84 558H1740.18V370.5H1769.84V558Z" fill="#6724FD"/>
<path d="M1881.17 558C1879.87 555.477 1878.73 551.368 1877.75 545.671C1868.31 555.518 1856.76 560.441 1843.08 560.441C1829.82 560.441 1819 556.657 1810.61 549.089C1802.23 541.521 1798.04 532.162 1798.04 521.013C1798.04 506.934 1803.25 496.151 1813.67 488.664C1824.16 481.096 1839.14 477.312 1858.59 477.312H1876.78V468.645C1876.78 461.809 1874.86 456.356 1871.04 452.287C1867.21 448.137 1861.4 446.062 1853.58 446.062C1846.83 446.062 1841.29 447.771 1836.98 451.188C1832.67 454.525 1830.51 458.798 1830.51 464.006H1800.85C1800.85 456.763 1803.25 450.008 1808.05 443.742C1812.85 437.395 1819.36 432.43 1827.58 428.85C1835.88 425.269 1845.12 423.479 1855.29 423.479C1870.75 423.479 1883.08 427.385 1892.28 435.197C1901.48 442.928 1906.2 453.833 1906.44 467.912V527.482C1906.44 539.364 1908.11 548.845 1911.44 555.925V558H1881.17ZM1848.58 536.638C1854.44 536.638 1859.93 535.214 1865.06 532.365C1870.27 529.517 1874.17 525.692 1876.78 520.891V495.988H1860.79C1849.8 495.988 1841.54 497.901 1836 501.726C1830.47 505.55 1827.7 510.962 1827.7 517.961C1827.7 523.658 1829.58 528.215 1833.32 531.633C1837.14 534.969 1842.23 536.638 1848.58 536.638Z" fill="#6724FD"/>
<path d="M1981.76 515.52L2008.61 425.92H2040.23L1987.74 578.02C1979.68 600.236 1966.01 611.345 1946.72 611.345C1942.41 611.345 1937.65 610.612 1932.44 609.147V586.198L1938.06 586.564C1945.54 586.564 1951.16 585.181 1954.9 582.414C1958.73 579.729 1961.74 575.171 1963.93 568.742L1968.21 557.39L1921.82 425.92H1953.8L1981.76 515.52Z" fill="#6724FD"/>
</svg>
