<svg width="1892" height="512" viewBox="0 0 1892 512" fill="none" xmlns="http://www.w3.org/2000/svg">
<path d="M68.2007 6.52503C55.0105 -1.41505 39.2904 -2.12505 25.5802 4.48501L255.452 234.847L330.613 159.337L68.2007 6.52503ZM4.46004 25.8052C1.56001 31.9453 0 38.7753 0 45.8054V467.19C0 474.25 1.57002 480.98 4.50004 486.99L234.282 256.117L4.46004 25.8052ZM255.483 277.358L25.9813 507.95C32.0713 510.77 38.5514 512 45.0214 512C53.0115 512 60.9816 510.09 68.2017 505.75L330.664 352.708L255.483 277.358ZM430.555 217.537C430.465 217.477 430.365 217.417 430.275 217.367L357.414 174.937L276.644 256.087L357.464 337.078C357.464 337.078 430.465 294.518 430.555 294.468C444.105 286.238 452.195 271.858 452.195 255.997C452.195 240.137 444.105 225.757 430.555 217.537Z" fill="#6724FD"/>
<path d="M649.58 125.157C645.723 130.187 640.376 133.995 633.54 136.583C626.704 139.171 618.94 140.465 610.249 140.465C601.313 140.465 593.403 138.438 586.519 134.386C579.634 130.333 574.312 124.547 570.552 117.027C566.841 109.459 564.912 100.646 564.766 90.5869V82.2373C564.766 66.124 568.623 53.5508 576.338 44.5176C584.053 35.4355 594.819 30.8945 608.638 30.8945C620.503 30.8945 629.927 33.8242 636.909 39.6836C643.892 45.543 648.091 53.9902 649.507 65.0254H631.343C629.292 52.1836 621.846 45.7627 609.004 45.7627C600.703 45.7627 594.38 48.7656 590.034 54.7715C585.737 60.7285 583.516 69.4932 583.369 81.0654V89.2686C583.369 100.792 585.786 109.752 590.62 116.148C595.503 122.496 602.266 125.67 610.908 125.67C620.381 125.67 627.119 123.521 631.123 119.225V98.3506H609.15V84.2881H649.58V125.157Z" fill="#6724FD"/>
<path d="M732.271 91.3926H688.472V124.205H739.668V139H669.941V32.3594H739.155V47.3008H688.472V76.7441H732.271V91.3926Z" fill="#6724FD"/>
<path d="M833.271 47.3008H800.02V139H781.636V47.3008H748.677V32.3594H833.271V47.3008Z" fill="#6724FD"/>
<path d="M899.849 139H881.392V32.3594H899.849V139Z" fill="#6724FD"/>
<path d="M997.48 47.3008H964.229V139H945.845V47.3008H912.886V32.3594H997.48V47.3008Z" fill="#6724FD"/>
<path d="M1129.61 88.4629C1129.61 98.9121 1127.8 108.092 1124.19 116.002C1120.58 123.863 1115.4 129.918 1108.66 134.166C1101.97 138.365 1094.26 140.465 1085.52 140.465C1076.88 140.465 1069.16 138.365 1062.37 134.166C1055.63 129.918 1050.41 123.888 1046.7 116.075C1043.04 108.263 1041.18 99.2539 1041.13 89.0488V83.043C1041.13 72.6426 1042.96 63.4629 1046.63 55.5039C1050.34 47.5449 1055.54 41.4658 1062.23 37.2666C1068.96 33.0186 1076.68 30.8945 1085.37 30.8945C1094.06 30.8945 1101.75 32.9941 1108.44 37.1934C1115.18 41.3438 1120.38 47.3496 1124.04 55.2109C1127.71 63.0234 1129.56 72.1299 1129.61 82.5303V88.4629ZM1111.08 82.8965C1111.08 71.0801 1108.83 62.0225 1104.34 55.7236C1099.9 49.4248 1093.57 46.2754 1085.37 46.2754C1077.36 46.2754 1071.09 49.4248 1066.55 55.7236C1062.06 61.9736 1059.76 70.8359 1059.66 82.3105V88.4629C1059.66 100.182 1061.93 109.239 1066.47 115.636C1071.06 122.032 1077.41 125.23 1085.52 125.23C1093.72 125.23 1100.02 122.105 1104.41 115.855C1108.86 109.605 1111.08 100.475 1111.08 88.4629V82.8965Z" fill="#6724FD"/>
<path d="M1232.66 139H1214.13L1166.6 63.3408V139H1148.07V32.3594H1166.6L1214.28 108.312V32.3594H1232.66V139Z" fill="#6724FD"/>
<path d="M711.295 427.929C704.866 436.311 695.955 442.659 684.562 446.972C673.168 451.285 660.229 453.441 645.743 453.441C630.851 453.441 617.667 450.064 606.192 443.31C594.718 436.555 585.847 426.911 579.581 414.379C573.396 401.765 570.182 387.076 569.938 370.312V356.396C569.938 329.54 576.367 308.585 589.225 293.529C602.083 278.393 620.027 270.824 643.058 270.824C662.833 270.824 678.539 275.707 690.177 285.473C701.814 295.238 708.813 309.317 711.173 327.709H680.899C677.481 306.306 665.071 295.604 643.668 295.604C629.833 295.604 619.295 300.609 612.052 310.619C604.89 320.548 601.188 335.155 600.943 354.442V368.114C600.943 387.32 604.972 402.253 613.028 412.914C621.166 423.493 632.438 428.783 646.842 428.783C662.63 428.783 673.86 425.202 680.533 418.041V383.251H643.912V359.813H711.295V427.929Z" fill="#6724FD"/>
<path d="M736.808 383.739C736.808 370.8 739.371 359.162 744.498 348.827C749.625 338.41 756.827 330.435 766.104 324.901C775.382 319.286 786.043 316.479 798.087 316.479C815.909 316.479 830.354 322.216 841.422 333.69C852.571 345.165 858.593 360.383 859.488 379.345L859.61 386.303C859.61 399.324 857.088 410.961 852.042 421.215C847.078 431.469 839.916 439.403 830.558 445.019C821.28 450.634 810.538 453.441 798.331 453.441C779.695 453.441 764.762 447.257 753.531 434.887C742.382 422.436 736.808 405.875 736.808 385.204V383.739ZM766.471 386.303C766.471 399.893 769.278 410.554 774.894 418.285C780.509 425.935 788.321 429.76 798.331 429.76C808.341 429.76 816.113 425.854 821.646 418.041C827.262 410.229 830.069 398.795 830.069 383.739C830.069 370.393 827.18 359.813 821.402 352.001C815.706 344.188 807.934 340.282 798.087 340.282C788.403 340.282 780.712 344.148 775.016 351.879C769.319 359.529 766.471 371.003 766.471 386.303Z" fill="#6724FD"/>
<path d="M879.142 383.739C879.142 370.8 881.705 359.162 886.832 348.827C891.959 338.41 899.161 330.435 908.438 324.901C917.716 319.286 928.377 316.479 940.421 316.479C958.243 316.479 972.688 322.216 983.756 333.69C994.905 345.165 1000.93 360.383 1001.82 379.345L1001.94 386.303C1001.94 399.324 999.422 410.961 994.376 421.215C989.412 431.469 982.25 439.403 972.892 445.019C963.614 450.634 952.872 453.441 940.665 453.441C922.029 453.441 907.096 447.257 895.865 434.887C884.716 422.436 879.142 405.875 879.142 385.204V383.739ZM908.805 386.303C908.805 399.893 911.612 410.554 917.228 418.285C922.843 425.935 930.655 429.76 940.665 429.76C950.675 429.76 958.447 425.854 963.98 418.041C969.596 410.229 972.403 398.795 972.403 383.739C972.403 370.393 969.514 359.813 963.736 352.001C958.04 344.188 950.268 340.282 940.421 340.282C930.737 340.282 923.046 344.148 917.35 351.879C911.653 359.529 908.805 371.003 908.805 386.303Z" fill="#6724FD"/>
<path d="M1021.84 383.983C1021.84 363.476 1026.64 347.118 1036.25 334.911C1045.93 322.623 1058.75 316.479 1074.7 316.479C1089.75 316.479 1101.59 321.728 1110.22 332.226L1111.56 318.92H1138.3V446.972C1138.3 464.306 1132.89 477.978 1122.06 487.987C1111.32 497.997 1096.79 503.002 1078.48 503.002C1068.8 503.002 1059.32 500.967 1050.04 496.898C1040.84 492.911 1033.85 487.662 1029.04 481.151L1043.08 463.329C1052.2 474.153 1063.43 479.564 1076.77 479.564C1086.62 479.564 1094.39 476.879 1100.09 471.508C1105.79 466.218 1108.63 458.406 1108.63 448.07V439.159C1100.09 448.681 1088.7 453.441 1074.45 453.441C1058.99 453.441 1046.34 447.297 1036.49 435.009C1026.72 422.72 1021.84 405.712 1021.84 383.983ZM1051.38 386.547C1051.38 399.812 1054.07 410.269 1059.44 417.919C1064.89 425.487 1072.42 429.271 1082.02 429.271C1093.99 429.271 1102.86 424.145 1108.63 413.891V355.785C1103.02 345.775 1094.23 340.771 1082.27 340.771C1072.5 340.771 1064.89 344.636 1059.44 352.367C1054.07 360.098 1051.38 371.492 1051.38 386.547Z" fill="#6724FD"/>
<path d="M1200.43 451H1170.77V263.5H1200.43V451Z" fill="#6724FD"/>
<path d="M1291.01 453.441C1272.21 453.441 1256.95 447.541 1245.23 435.741C1233.59 423.86 1227.77 408.072 1227.77 388.378V384.716C1227.77 371.532 1230.3 359.773 1235.34 349.438C1240.47 339.021 1247.63 330.924 1256.83 325.146C1266.02 319.368 1276.28 316.479 1287.59 316.479C1305.57 316.479 1319.45 322.216 1329.21 333.69C1339.06 345.165 1343.99 361.4 1343.99 382.396V394.359H1257.68C1258.58 405.264 1262.2 413.891 1268.55 420.238C1274.97 426.586 1283.03 429.76 1292.72 429.76C1306.31 429.76 1317.37 424.267 1325.92 413.28L1341.91 428.539C1336.62 436.433 1329.54 442.577 1320.67 446.972C1311.88 451.285 1301.99 453.441 1291.01 453.441ZM1287.47 340.282C1279.33 340.282 1272.74 343.131 1267.69 348.827C1262.73 354.524 1259.55 362.458 1258.17 372.631H1314.69V370.434C1314.04 360.505 1311.39 353.018 1306.75 347.973C1302.12 342.846 1295.69 340.282 1287.47 340.282Z" fill="#6724FD"/>
<path d="M1463.13 384.96V451H1432.24V273.266H1500.24C1520.09 273.266 1535.84 278.433 1547.48 288.769C1559.2 299.104 1565.05 312.776 1565.05 329.784C1565.05 347.2 1559.32 360.749 1547.84 370.434C1536.45 380.118 1520.46 384.96 1499.87 384.96H1463.13ZM1463.13 360.18H1500.24C1511.22 360.18 1519.6 357.616 1525.38 352.489C1531.16 347.281 1534.05 339.794 1534.05 330.028C1534.05 320.425 1531.12 312.776 1525.26 307.079C1519.4 301.301 1511.34 298.331 1501.09 298.168H1463.13V360.18Z" fill="#6724FD"/>
<path d="M1620.84 451H1591.18V263.5H1620.84V451Z" fill="#6724FD"/>
<path d="M1732.17 451C1730.87 448.477 1729.73 444.368 1728.75 438.671C1719.31 448.518 1707.75 453.441 1694.08 453.441C1680.82 453.441 1669.99 449.657 1661.61 442.089C1653.23 434.521 1649.04 425.162 1649.04 414.013C1649.04 399.934 1654.25 389.151 1664.66 381.664C1675.16 374.096 1690.14 370.312 1709.59 370.312H1727.77V361.645C1727.77 354.809 1725.86 349.356 1722.04 345.287C1718.21 341.137 1712.39 339.062 1704.58 339.062C1697.83 339.062 1692.29 340.771 1687.98 344.188C1683.67 347.525 1681.51 351.798 1681.51 357.006H1651.85C1651.85 349.763 1654.25 343.008 1659.05 336.742C1663.85 330.395 1670.36 325.43 1678.58 321.85C1686.88 318.269 1696.12 316.479 1706.29 316.479C1721.75 316.479 1734.08 320.385 1743.28 328.197C1752.47 335.928 1757.19 346.833 1757.44 360.912V420.482C1757.44 432.364 1759.11 441.845 1762.44 448.925V451H1732.17ZM1699.58 429.638C1705.44 429.638 1710.93 428.214 1716.06 425.365C1721.26 422.517 1725.17 418.692 1727.77 413.891V388.988H1711.78C1700.8 388.988 1692.54 390.901 1687 394.726C1681.47 398.55 1678.7 403.962 1678.7 410.961C1678.7 416.658 1680.57 421.215 1684.32 424.633C1688.14 427.969 1693.23 429.638 1699.58 429.638Z" fill="#6724FD"/>
<path d="M1832.75 408.52L1859.61 318.92H1891.23L1838.74 471.02C1830.68 493.236 1817.01 504.345 1797.72 504.345C1793.41 504.345 1788.65 503.612 1783.44 502.147V479.198L1789.05 479.564C1796.54 479.564 1802.16 478.181 1805.9 475.414C1809.72 472.729 1812.74 468.171 1814.93 461.742L1819.21 450.39L1772.82 318.92H1804.8L1832.75 408.52Z" fill="#6724FD"/>
</svg>
