<svg width="512" height="512" viewBox="0 0 512 512" fill="none" xmlns="http://www.w3.org/2000/svg">
<g clip-path="url(#clip0)">
<path d="M276.47 240.648H491.765C497.287 240.648 501.765 236.097 501.765 230.574L501.766 230.387C501.766 170.154 478.332 113.526 435.782 70.9338C393.229 28.3398 336.65 4.88184 276.47 4.88184C270.948 4.88184 266.47 9.35884 266.47 14.8818V230.648C266.47 236.171 270.947 240.648 276.47 240.648V240.648ZM286.47 25.1228C391.803 30.2028 476.564 115.116 481.534 220.648H286.47V25.1228Z" fill="#292C40"/>
<path d="M509.075 268.659C507.199 266.781 504.654 265.726 502 265.726H286.705C282.661 265.726 279.016 268.162 277.467 271.897C275.919 275.632 276.773 279.933 279.631 282.793L431.737 435.048C433.611 436.924 436.155 437.98 438.807 437.981H438.811C441.461 437.981 444.004 436.928 445.879 435.055C488.446 392.519 511.928 335.939 511.999 275.738C512.003 273.083 510.951 270.537 509.075 268.659V268.659ZM438.649 413.67L427.523 402.533L444.751 385.304C448.656 381.399 448.656 375.067 444.751 371.162C440.845 367.257 434.515 367.257 430.608 371.162L413.387 388.383L394.602 369.58L440.154 324.027C444.059 320.122 444.059 313.79 440.154 309.885C436.248 305.98 429.918 305.98 426.011 309.885L380.466 355.43L363.212 338.159L378.366 323.004C382.271 319.099 382.271 312.767 378.366 308.862C374.46 304.957 368.13 304.957 364.223 308.862L349.076 324.009L310.827 285.723H491.75C489.42 333.509 470.83 378.297 438.649 413.67V413.67Z" fill="#7029FC"/>
<path d="M235.295 277.734V66.106C235.295 60.583 230.818 56.106 225.295 56.106C165.115 56.106 108.537 79.5639 65.983 122.159C23.434 164.751 0 221.379 0 281.612C0 341.845 23.434 398.473 65.984 441.065C108.537 483.66 165.115 507.118 225.296 507.118C285.403 507.118 341.933 483.708 384.471 441.201C388.377 437.298 388.38 430.967 384.477 427.059L235.295 277.734ZM225.295 487.118C112.095 487.118 20 394.928 20 281.612C20 171.65 106.719 81.583 215.295 76.347V276.381L109.848 343.415C105.187 346.378 103.811 352.558 106.774 357.219C108.679 360.217 111.916 361.856 115.222 361.856C117.057 361.856 118.914 361.351 120.577 360.293L223.889 294.616L363.092 433.953C325.27 468.313 276.721 487.118 225.295 487.118Z" fill="#292C40"/>
</g>
<defs>
<clipPath id="clip0">
<rect width="512" height="512" fill="white"/>
</clipPath>
</defs>
</svg>
