<svg width="512" height="512" viewBox="0 0 512 512" fill="none" xmlns="http://www.w3.org/2000/svg">
<g clip-path="url(#clip0)">
<path d="M510.45 470.029C495.591 446.549 470.185 432.53 442.492 432.53C425.979 432.53 410.264 437.467 396.982 446.651C391.828 435.069 383.962 424.73 374.034 416.673C359.788 405.113 341.833 398.747 323.476 398.747C305.825 398.747 289.069 404.375 275.019 415.024C267.537 420.696 261.092 427.686 255.999 435.543C250.906 427.687 244.462 420.696 236.979 415.024C222.929 404.375 206.173 398.747 188.522 398.747C170.166 398.747 152.21 405.113 137.964 416.673C128.035 424.73 120.17 435.069 115.016 446.651C101.734 437.467 86.019 432.53 69.506 432.53C41.812 432.53 16.407 446.549 1.54805 470.03C0.535047 471.63 -0.00195312 473.484 -0.00195312 475.377V502C-0.00195312 507.523 4.47605 512 9.99805 512H501.998C507.52 512 511.998 507.523 511.998 502V475.376C512 473.483 511.463 471.629 510.45 470.029V470.029ZM492 492H20V478.393C31.337 462.147 49.643 452.53 69.508 452.53C85.878 452.53 101.206 458.995 112.668 470.734C115.229 473.356 119.02 474.368 122.545 473.37C126.072 472.372 128.771 469.525 129.577 465.95C135.853 438.158 160.094 418.747 188.523 418.747C215.002 418.747 238.81 436.511 246.419 461.945C247.686 466.178 251.58 469.079 255.999 469.079C260.418 469.079 264.312 466.179 265.579 461.945C273.188 436.511 296.996 418.747 323.475 418.747C351.905 418.747 376.145 438.158 382.421 465.95C383.228 469.525 385.926 472.372 389.453 473.37C392.977 474.365 396.767 473.356 399.33 470.734C410.792 458.995 426.12 452.53 442.49 452.53C462.355 452.53 480.661 462.147 491.998 478.392V492H492Z" fill="#7029FC"/>
<path d="M149.35 369.21C151.058 372.452 154.403 374.5 158.067 374.547C158.111 374.547 158.154 374.548 158.198 374.548C161.812 374.548 165.15 372.596 166.921 369.437L184.996 337.187C186.292 337.794 187.733 338.13 189.235 338.13H216.207C216.161 338.92 216.137 339.715 216.137 340.513C216.137 373.077 250.348 389.273 251.804 389.947C253.136 390.563 254.569 390.87 256.001 390.87C257.498 390.87 258.996 390.534 260.376 389.862C261.824 389.157 295.865 372.233 295.865 340.513C295.865 339.715 295.841 338.92 295.795 338.13H322.766C324.304 338.13 325.776 337.779 327.096 337.144L345.069 369.414C346.836 372.586 350.18 374.548 353.805 374.548H353.921C357.59 374.505 360.942 372.457 362.651 369.21L389.638 317.994C402.296 293.972 400.417 265.279 384.734 243.112L361.585 210.395C361.395 210.127 361.194 209.871 360.984 209.627C364.652 191.242 367.16 175.697 367.16 167.556C367.16 129.905 349.31 90.4859 314.107 50.3939C288.369 21.0829 262.937 2.65291 261.867 1.88191C258.379 -0.62809 253.676 -0.63009 250.185 1.88091C249.115 2.65191 223.67 21.0799 197.921 50.3899C162.701 90.4809 144.843 129.9 144.843 167.552C144.843 175.693 147.351 191.239 151.019 209.625C150.808 209.869 150.607 210.125 150.417 210.393L127.268 243.11C111.584 265.277 109.705 293.97 122.364 317.992L149.35 369.21ZM275.864 340.514C275.864 354.598 262.875 364.87 255.914 369.364C248.98 365.006 236.136 354.979 236.136 340.514C236.136 339.711 236.183 338.915 236.276 338.131H275.725C275.817 338.915 275.864 339.711 275.864 340.514ZM368.407 254.664C379.719 270.651 381.073 291.346 371.944 308.671L353.56 343.56L336.831 313.524C341.478 295.169 348.972 264.916 355.348 236.208L368.407 254.664ZM256.021 22.6209C264.857 29.6719 282.424 44.5849 299.797 64.5059H212.224C229.607 44.5829 247.184 29.6699 256.021 22.6209V22.6209ZM196.299 84.5059H315.714C333.114 108.683 347.158 137.505 347.158 167.557C347.158 188.666 325.529 277.232 315.022 318.131H196.977C186.471 277.233 164.842 188.666 164.842 167.554C164.842 137.502 178.892 108.681 196.299 84.5059V84.5059ZM143.593 254.664L156.652 236.207C163.051 265.02 170.576 295.388 175.219 313.723L158.468 343.611L140.056 308.671C130.927 291.346 132.282 270.652 143.593 254.664Z" fill="#292C40"/>
<path d="M256.001 235.811C289.902 235.811 317.482 208.23 317.482 174.33C317.482 140.43 289.902 112.849 256.001 112.849C222.1 112.849 194.52 140.429 194.52 174.33C194.52 208.231 222.1 235.811 256.001 235.811ZM256.001 132.849C278.874 132.849 297.482 151.457 297.482 174.33C297.482 197.203 278.874 215.811 256.001 215.811C233.128 215.811 214.52 197.203 214.52 174.33C214.52 151.457 233.128 132.849 256.001 132.849Z" fill="#292C40"/>
</g>
<defs>
<clipPath id="clip0">
<rect width="512" height="512" fill="white"/>
</clipPath>
</defs>
</svg>
