<svg width="512" height="512" viewBox="0 0 512 512" fill="none" xmlns="http://www.w3.org/2000/svg">
<path d="M502.166 324.199C495.355 316.684 486.051 312.301 475.961 311.855C465.899 311.407 456.238 314.951 448.807 321.825C448.643 321.976 448.485 322.133 448.331 322.295L429.968 341.712C425.058 327.747 411.801 317.715 396.258 317.715H282.562C271.004 317.715 259.623 315.73 248.735 311.816C231.143 305.49 211.781 305.47 194.211 311.754C176.925 317.938 162.094 329.925 152.45 345.507C148.632 351.677 146.052 358.569 144.817 365.815H118.456V362.754C118.456 357.231 113.978 352.754 108.456 352.754H10.0005C4.47823 352.754 0 357.231 0 362.754V480.479C0 486.003 4.47823 490.48 10.0005 490.48H108.456C113.978 490.48 118.456 486.003 118.456 480.479V475.71H121.224C142.168 475.71 163.118 478.194 183.49 483.095C205.518 488.393 228.168 491.064 250.811 491.033L375.201 490.938C392.406 490.924 408.741 483.423 420.015 470.359L500.254 377.404C515.112 363.221 516.012 339.484 502.166 324.199V324.199ZM98.455 470.478H20.001V372.754H98.455V470.478ZM486.234 363.134C485.96 363.388 485.699 363.657 485.454 363.941L404.876 457.289C397.397 465.953 386.576 470.927 375.186 470.936L250.79 471.031H250.436C229.491 471.031 208.54 468.547 188.169 463.647C166.266 458.378 143.743 455.708 121.225 455.708H118.457V385.815H143.975V417.441C144.503 430.71 163.452 430.7 163.976 417.441V375.814C163.976 368.665 165.871 361.823 169.456 356.031C184.555 331.637 215.049 320.959 241.967 330.636C255.032 335.333 268.691 337.715 282.562 337.715H396.258C410.302 337.693 417.277 355.231 407.28 365.061C404.297 368.029 400.345 369.651 396.149 369.625L275.789 369.155H275.676C267.535 369.155 259.872 372.325 254.091 378.088C248.245 383.915 245.027 391.681 245.03 399.956L245.037 410.921V427.903C245.565 441.171 264.514 441.161 265.038 427.903V425.615H373.834C376.583 425.615 379.21 424.484 381.1 422.486L462.608 336.308C466.058 333.219 470.489 331.629 475.079 331.837C479.792 332.045 484.148 334.102 487.344 337.628H487.343C493.997 344.973 493.499 356.415 486.234 363.134V363.134ZM265.035 405.615L265.031 399.947C265.03 397.032 266.16 394.301 268.212 392.256C270.226 390.249 272.855 389.14 275.714 389.158L384.691 389.584L369.528 405.616H265.035V405.615Z" fill="#292C40"/>
<path d="M366.498 301.58C370.256 305.83 377.435 305.83 381.192 301.58L497.929 175.173C503.832 168.894 499.197 158.31 490.581 158.387H472.154V30.9675C472.154 25.4443 467.675 20.967 462.153 20.967H285.537C280.015 20.967 275.537 25.4443 275.537 30.9675V158.388H257.107C248.488 158.311 243.858 168.897 249.759 175.174L366.498 301.58ZM285.537 178.388C291.059 178.388 295.538 173.911 295.538 168.388V40.9681H452.152V168.389C452.152 173.912 456.631 178.389 462.153 178.389H467.735L373.846 280.056L279.955 178.389H285.537V178.388Z" fill="#7029FC"/>
<path d="M399.673 73.5168C394.582 71.3806 388.72 73.7758 386.582 78.869L344.043 180.238C341.905 185.331 344.302 191.193 349.395 193.33C354.361 195.45 360.349 193.123 362.486 187.978L405.025 86.6084C407.163 81.5152 404.766 75.6539 399.673 73.5168V73.5168Z" fill="#7029FC"/>
<path d="M373.916 99.858C373.916 82.2991 360.998 68.0144 345.119 68.0144C306.921 69.7425 306.934 129.982 345.119 131.703C360.998 131.702 373.916 117.417 373.916 99.858ZM336.324 99.858C336.324 93.4387 340.352 88.0154 345.12 88.0154C349.888 88.0154 353.916 93.4387 353.916 99.858C353.916 106.277 349.888 111.701 345.12 111.701C340.352 111.701 336.324 106.277 336.324 99.858Z" fill="#7029FC"/>
<path d="M402.572 201.01C418.451 201.01 431.369 186.725 431.369 169.166C429.778 126.918 375.361 126.927 373.775 169.166C373.775 186.725 386.693 201.01 402.572 201.01ZM402.572 157.323C407.34 157.323 411.368 162.746 411.368 169.166C411.368 175.585 407.34 181.009 402.572 181.009C397.804 181.009 393.776 175.586 393.776 169.166C393.776 162.746 397.804 157.323 402.572 157.323Z" fill="#7029FC"/>
</svg>
