<svg width="512" height="512" viewBox="0 0 512 512" fill="none" xmlns="http://www.w3.org/2000/svg">
<g clip-path="url(#clip0)">
<path d="M144.4 211.335H226.863L248.929 233.401C250.882 235.353 253.441 236.33 256 236.33C258.559 236.33 261.119 235.353 263.071 233.401L285.137 211.335H367.6C373.123 211.335 377.6 206.857 377.6 201.335V18.5259C377.6 13.0039 373.123 8.52588 367.6 8.52588H144.4C138.877 8.52588 134.4 13.0039 134.4 18.5259V201.335C134.4 206.857 138.877 211.335 144.4 211.335V211.335ZM154.4 28.5259H357.601V191.335H280.996C278.344 191.335 275.8 192.389 273.925 194.264L256 212.187L238.076 194.263C236.2 192.388 233.657 191.334 231.005 191.334H154.4V28.5259Z" fill="#292C40"/>
<path d="M244.717 169.358C244.717 174.881 249.194 179.358 254.717 179.358C260.069 179.358 264.438 175.154 264.704 169.869C280.891 167.402 292.296 156.957 294.108 142.625C296.17 126.311 285.484 110.651 268.121 104.546C266.938 104.13 265.804 103.728 264.717 103.34V77.7609C267.088 78.7199 268.757 80.0339 269.651 81.2999C272.833 85.8119 279.073 86.8899 283.587 83.7069C288.1 80.5229 289.178 74.2839 285.994 69.7699C281.822 63.8559 274.388 58.8809 264.718 57.0649V56.2559C264.718 50.7329 260.241 46.2559 254.718 46.2559C249.195 46.2559 244.718 50.7329 244.718 56.2559V57.7809C243.658 58.0339 242.587 58.3219 241.503 58.6469C229.975 62.1009 221.279 73.2399 220.355 85.7329C219.442 98.0959 226.035 108.826 237.99 114.434C239.504 115.144 241.807 116.104 244.718 117.243V148.437C241.005 147.128 237.672 145.139 235.424 142.363C231.948 138.071 225.651 137.41 221.36 140.884C217.068 144.36 216.406 150.656 219.881 154.948C226.268 162.835 235.566 167.176 244.718 169.131V169.358H244.717ZM274.265 140.117C273.69 144.669 270.284 147.946 264.716 149.475V124.805C272.096 128.64 274.893 135.154 274.265 140.117ZM240.3 87.2079C240.538 83.9839 242.299 80.8899 244.717 79.0979V95.3669C241.532 93.3549 240.048 90.6179 240.3 87.2079V87.2079Z" fill="#7029FC"/>
<path d="M509.716 279.149L467.653 228.128C465.964 226.079 463.529 224.786 460.886 224.534C458.248 224.281 455.608 225.092 453.562 226.785L435.061 242.096L410.307 226.707C385.163 211.077 352.929 213.25 330.092 232.116L275.324 277.365C265.974 285.093 264.612 298.969 272.287 308.299C276.324 313.206 281.413 316.939 287.137 319.275L248.336 351.331L224.868 331.943C230.592 329.607 235.681 325.875 239.718 320.967C247.393 311.637 246.031 297.761 236.679 290.032L181.911 244.784C159.075 225.919 126.839 223.746 101.696 239.376L76.9403 254.763L58.4393 239.453C56.3933 237.76 53.7573 236.951 51.1153 237.202C48.4713 237.454 46.0373 238.747 44.3483 240.796L2.28429 291.818C-1.22371 296.074 -0.624713 302.366 3.62329 305.883L19.3323 318.886L15.0673 348.019C11.5883 371.789 20.9193 396.053 39.4213 411.343L142.438 496.475C147.917 501.001 154.899 503.475 161.988 503.475C163.049 503.475 164.113 503.419 165.174 503.308C173.216 502.456 180.364 498.551 185.302 492.311C188.329 488.485 190.261 484.109 191.139 479.581C193.802 480.013 196.528 480.096 199.239 479.81C207.281 478.959 214.43 475.054 219.369 468.814C222.115 465.344 223.959 461.422 224.933 457.344C234.407 459.678 244.698 457.473 252.157 450.767C255.903 447.4 258.675 443.167 260.291 438.493C267.711 444.891 277.782 446.963 287.067 444.676C288.042 448.754 289.886 452.675 292.632 456.146C297.571 462.386 304.719 466.291 312.761 467.141C315.473 467.429 318.199 467.343 320.861 466.911C321.739 471.439 323.67 475.815 326.697 479.641C331.635 485.882 338.784 489.788 346.826 490.638C347.887 490.75 348.95 490.806 350.011 490.806C357.1 490.806 364.084 488.332 369.562 483.805L472.579 398.673C491.08 383.382 500.412 359.118 496.932 335.35L492.667 306.216L508.375 293.213C512.625 289.697 513.224 283.405 509.716 279.149V279.149ZM242.086 397.841C241.927 397.71 241.766 397.585 241.602 397.466L175.341 342.688C171.085 339.168 164.782 339.767 161.262 344.023C157.744 348.28 158.341 354.584 162.598 358.102L231.573 415.124C231.708 415.236 231.845 415.343 231.985 415.446L238.059 420.484C240.451 422.462 241.86 425.392 241.926 428.526C241.961 430.193 241.599 433.367 238.788 435.893C235.176 439.139 229.414 439.074 225.383 435.744L221.856 432.83C221.856 432.83 221.855 432.83 221.855 432.829L150.03 373.452C145.775 369.933 139.471 370.53 135.951 374.787C132.432 379.044 133.03 385.348 137.287 388.866L202.07 442.422C202.1 442.448 202.13 442.473 202.161 442.499C206.337 445.95 207.021 452.187 203.686 456.402C202.112 458.39 199.787 459.639 197.137 459.92C194.301 460.222 191.425 459.36 189.26 457.57L180.911 450.644C180.886 450.623 180.86 450.601 180.834 450.581C180.679 450.453 180.522 450.331 180.362 450.214L124.721 404.213C120.465 400.693 114.161 401.291 110.642 405.548C107.123 409.805 107.721 416.109 111.977 419.627L168.54 466.389C172.314 469.904 172.831 475.84 169.619 479.899C168.046 481.887 165.72 483.136 163.071 483.417C160.232 483.719 157.358 482.857 155.179 481.057L52.1623 395.926C39.0143 385.06 32.3833 367.813 34.8563 350.915L39.9353 316.217C40.4413 312.762 39.1073 309.292 36.4173 307.066L24.0653 296.84L53.4073 261.249L69.7333 274.76C73.0463 277.5 77.7373 277.816 81.3883 275.549L112.254 256.363C130.093 245.272 152.966 246.817 169.172 260.204L223.938 305.45C224.807 306.168 224.956 307.428 224.272 308.26C221.249 311.935 216.973 314.209 212.232 314.666C207.45 315.118 202.775 313.688 199.058 310.62L199.055 310.617C199.055 310.616 199.055 310.616 199.055 310.616C194.798 307.099 188.494 307.699 184.977 311.957C181.459 316.215 182.06 322.518 186.317 326.035L254.31 382.208C256.496 384.015 257.891 386.692 258.139 389.555C258.37 392.229 257.588 394.766 255.934 396.699C252.455 400.764 246.244 401.277 242.086 397.841V397.841ZM472.065 303.548L477.144 338.247C479.618 355.144 472.986 372.392 459.839 383.257L356.822 468.389C354.643 470.189 351.764 471.049 348.93 470.75C346.28 470.47 343.954 469.22 342.381 467.232C339.168 463.171 339.686 457.234 343.463 453.719L400.022 406.961C404.279 403.443 404.877 397.139 401.357 392.882C397.838 388.626 391.534 388.027 387.278 391.547L331.628 437.554C331.471 437.669 331.316 437.789 331.164 437.914C331.138 437.935 331.113 437.956 331.087 437.977L322.752 444.89C320.573 446.691 317.697 447.549 314.86 447.251C312.21 446.971 309.884 445.722 308.311 443.734C304.979 439.523 305.658 433.295 309.823 429.841L309.836 429.83C309.876 429.797 309.915 429.763 309.955 429.729L374.711 376.196C378.968 372.678 379.565 366.374 376.047 362.117C372.527 357.86 366.225 357.263 361.968 360.782L290.143 420.159C290.132 420.168 290.121 420.178 290.109 420.187L286.615 423.075C282.584 426.406 276.821 426.471 273.21 423.224C270.4 420.698 270.038 417.524 270.073 415.857C270.138 412.723 271.548 409.793 273.954 407.803L280.007 402.782C280.148 402.677 280.288 402.568 280.425 402.455L349.4 345.432C353.657 341.914 354.254 335.61 350.736 331.353C347.217 327.097 340.913 326.498 336.657 330.018L276.295 379.921C274.431 374.834 271.246 370.262 267.044 366.79L264.031 364.301L354.502 289.534L373.54 312.627C377.053 316.888 383.355 317.496 387.617 313.982C391.878 310.469 392.485 304.166 388.971 299.905L363.563 269.086C361.874 267.038 359.441 265.745 356.798 265.492C354.156 265.241 351.522 266.049 349.475 267.74L312.611 298.218C308.949 301.103 304.405 302.438 299.767 301.998C295.026 301.541 290.749 299.266 287.727 295.592C287.042 294.76 287.192 293.499 288.059 292.782L342.826 247.535C359.032 234.148 381.906 232.603 399.745 243.693L430.61 262.88C434.261 265.149 438.953 264.832 442.265 262.091L458.592 248.58L487.933 284.17L475.58 294.396C472.892 296.623 471.559 300.092 472.065 303.548V303.548Z" fill="#292C40"/>
</g>
<defs>
<clipPath id="clip0">
<rect width="512" height="512" fill="white"/>
</clipPath>
</defs>
</svg>
