<svg width="512" height="512" viewBox="0 0 512 512" fill="none" xmlns="http://www.w3.org/2000/svg">
<g clip-path="url(#clip0)">
<path d="M486.238 441.569L476.228 161.273C475.633 144.633 462.444 131.598 446.202 131.598H361.111V104.569C355.321 -34.9098 156.627 -34.8026 150.889 104.569V131.598H65.7972C49.555 131.598 36.3661 144.633 35.7715 161.273L25.7609 441.569C25.7569 441.688 25.7549 441.807 25.7549 441.926V481.968C25.7549 498.528 39.2271 512 55.7866 512H456.215C472.774 512 486.246 498.528 486.246 481.968V441.926C486.245 441.807 486.243 441.689 486.238 441.569ZM170.91 104.569C175.598 -8.34269 336.445 -8.2556 341.09 104.569V171.641C340.539 184.926 321.616 184.916 321.069 171.641V104.569C317.484 18.2254 194.484 18.2925 190.931 104.569V171.641C190.38 184.926 171.456 184.916 170.91 171.641V104.569ZM301.048 131.598H210.953V104.569C213.434 44.7935 298.588 44.8385 301.048 104.569V131.598ZM466.224 481.968C466.224 487.488 461.734 491.979 456.214 491.979H55.7856C50.2658 491.979 45.775 487.488 45.775 481.968V442.106L55.7796 161.987C55.9878 156.173 60.3875 151.619 65.7962 151.619H150.888V171.641C152.543 211.494 209.313 211.463 210.952 171.641V151.619H301.047V171.641C302.702 211.493 359.471 211.463 361.11 171.641V151.619H446.202C451.612 151.619 456.012 156.173 456.219 161.987L466.223 442.106V481.968H466.224Z" fill="#292C40"/>
<path d="M256 211.681C193.613 210.953 154.801 291.773 155.896 349.888C155.895 380.052 166.165 408.202 184.815 429.155C221.854 472.593 290.146 472.601 327.185 429.154C345.834 408.202 356.106 380.051 356.106 349.888C357.219 291.797 318.372 210.922 256 211.681V211.681ZM323.692 399.739C323.616 399.792 323.54 399.845 323.464 399.9C321.742 401.157 320.225 401.884 317.563 401.884C313.976 401.884 312.349 400.61 308.691 397.472C295.847 385.103 277.678 385.134 264.872 397.472C261.215 400.61 259.588 401.884 255.999 401.884C252.412 401.884 250.785 400.61 247.127 397.472C234.283 385.102 216.114 385.134 203.307 397.472C199.65 400.61 198.022 401.884 194.434 401.884C191.773 401.884 190.256 401.156 188.533 399.899C188.458 399.844 188.382 399.791 188.306 399.739C183.611 391.219 180.107 381.708 178.044 371.491C182.02 374.143 187.187 376.402 194.433 376.402C205.577 376.402 211.801 371.062 216.344 367.163C220.001 364.025 221.628 362.751 225.216 362.751C228.804 362.751 230.43 364.025 234.088 367.163C246.931 379.532 265.101 379.502 277.908 367.163C281.564 364.025 283.191 362.751 286.779 362.751C290.367 362.751 291.994 364.025 295.651 367.163C300.195 371.062 306.418 376.402 317.561 376.402C324.808 376.402 329.975 374.143 333.951 371.491C331.892 381.708 328.388 391.219 323.692 399.739V399.739ZM194.435 285.397C205.579 285.397 211.803 280.058 216.346 276.159C220.003 273.02 221.63 271.747 225.218 271.747C228.806 271.747 230.432 273.02 234.09 276.159C246.933 288.528 265.103 288.498 277.91 276.159C281.566 273.02 283.193 271.747 286.781 271.747C290.369 271.747 291.996 273.02 295.653 276.159C300.787 281.051 310.046 286.885 321.665 285.14C324.487 291.282 326.937 297.727 328.977 304.337C328.08 305.058 327.241 305.778 326.437 306.468C322.779 309.606 321.151 310.879 317.562 310.879C313.975 310.879 312.348 309.606 308.69 306.468C295.846 294.099 277.677 294.13 264.871 306.468C261.214 309.606 259.587 310.879 255.998 310.879C252.411 310.879 250.784 309.606 247.126 306.468C234.282 294.098 216.113 294.13 203.306 306.468C199.649 309.606 198.021 310.879 194.433 310.879C190.846 310.879 189.218 309.606 185.56 306.468C184.756 305.778 183.917 305.058 183.018 304.337C185.059 297.726 187.51 291.281 190.331 285.14C191.662 285.311 193.027 285.397 194.435 285.397ZM326.438 351.97C322.78 355.108 321.152 356.381 317.564 356.381C313.977 356.381 312.349 355.108 308.692 351.97C295.849 339.601 277.678 339.631 264.872 351.97C261.215 355.108 259.588 356.381 256 356.381C252.413 356.381 250.786 355.108 247.128 351.97C234.285 339.6 216.115 339.631 203.309 351.97C199.652 355.108 198.024 356.381 194.436 356.381C190.849 356.381 189.221 355.108 185.563 351.97C183.117 349.872 180.089 347.274 175.992 345.368C176.204 338.945 176.863 332.421 177.934 325.913C181.925 328.597 187.121 330.899 194.436 330.899C205.58 330.899 211.803 325.559 216.346 321.66C220.003 318.521 221.631 317.248 225.219 317.248C228.807 317.248 230.433 318.521 234.091 321.66C246.934 334.03 265.105 333.999 277.912 321.66C281.568 318.521 283.195 317.248 286.783 317.248C290.371 317.248 291.997 318.521 295.655 321.66C300.199 325.559 306.422 330.899 317.565 330.899C324.881 330.899 330.077 328.597 334.068 325.913C335.139 332.42 335.798 338.945 336.01 345.368C331.913 347.274 328.883 349.872 326.438 351.97V351.97ZM256 231.702C277.877 231.702 294.184 245.076 304.711 257.72C291.68 247.84 275.051 250.936 264.873 260.965C261.216 264.103 259.589 265.376 256.001 265.376C252.414 265.376 250.787 264.103 247.129 260.965C236.925 250.913 220.293 247.859 207.291 257.72C217.816 245.077 234.123 231.702 256 231.702ZM203.983 420.401C209.506 418.534 213.303 415.277 216.346 412.665C220.003 409.527 221.631 408.253 225.219 408.253C228.807 408.253 230.433 409.527 234.091 412.665C246.934 425.035 265.105 425.004 277.912 412.665C281.568 409.527 283.195 408.253 286.783 408.253C290.371 408.253 291.997 409.527 295.655 412.665C298.698 415.277 302.495 418.534 308.018 420.401C279.873 448.913 232.121 448.907 203.983 420.401V420.401Z" fill="#7029FC"/>
</g>
<defs>
<clipPath id="clip0">
<rect width="512" height="512" fill="white"/>
</clipPath>
</defs>
</svg>
