<svg width="513" height="513" viewBox="0 0 513 513" fill="none" xmlns="http://www.w3.org/2000/svg">
<g clip-path="url(#clip0)">
<path d="M109.834 496.21L94.7791 475.004C91.5831 470.5 85.3401 469.441 80.8361 472.638C76.3331 475.835 75.2731 482.077 78.4711 486.581L93.5261 507.788C95.4761 510.535 98.5581 512 101.689 512C103.691 512 105.712 511.4 107.469 510.153C111.972 506.956 113.032 500.714 109.834 496.21Z" fill="#292C40"/>
<path d="M225.206 499.946L208.822 421.858C200.855 383.886 178.735 351.052 146.539 329.403L111.558 305.881C97.531 296.451 78.677 298.479 66.953 310.434V189.938C66.953 174.122 56.17 160.684 40.73 157.257C30.765 155.043 20.487 157.441 12.526 163.828C4.56598 170.215 0.000976562 179.732 0.000976562 189.938V344.99C0.000976562 365.303 6.21698 384.796 17.976 401.361L35.809 426.482C37.759 429.229 40.841 430.694 43.972 430.694C45.974 430.694 47.995 430.094 49.752 428.847C54.255 425.65 55.315 419.408 52.117 414.904L34.284 389.783C24.94 376.62 20.001 361.131 20.001 344.989V189.938C20.001 185.83 21.839 181.999 25.043 179.427C28.246 176.856 32.383 175.891 36.397 176.782C42.612 178.161 46.953 183.571 46.953 189.938V312.954C46.953 330.368 53.351 346.959 64.974 359.867C65.472 360.464 65.984 361.055 66.525 361.628C73.166 368.665 80.974 376.957 88.328 384.773L98.623 395.73C98.656 395.765 98.692 395.795 98.726 395.829C107.533 405.196 114.028 412.113 114.164 412.257C117.943 416.282 124.273 416.482 128.299 412.701C132.325 408.92 132.524 402.592 128.742 398.566C128.56 398.372 116.854 385.907 103.486 371.698L80.557 347.295C80.499 347.233 80.446 347.168 80.388 347.106C75.012 340.676 75.079 331.353 80.714 324.991C85.699 319.365 94.163 318.285 100.4 322.478L135.379 346C163.227 364.725 182.358 393.123 189.248 425.965L205.633 504.054C206.622 508.767 210.779 512.002 215.41 512.002C216.09 512.002 216.781 511.932 217.473 511.787C222.878 510.653 226.34 505.351 225.206 499.946Z" fill="#292C40"/>
<path d="M74.0887 445.858L74.0247 445.768C70.8147 441.272 64.5707 440.228 60.0757 443.436C55.5807 446.644 54.5367 452.889 57.7437 457.384L57.8077 457.474C59.7597 460.209 62.8347 461.667 65.9567 461.667C67.9667 461.667 69.9957 461.063 71.7567 459.806C76.2507 456.598 77.2957 450.353 74.0887 445.858Z" fill="#292C40"/>
<path d="M499.475 163.829C491.515 157.442 481.232 155.048 471.272 157.258C455.832 160.684 445.048 174.123 445.048 189.939V310.435C433.325 298.48 414.469 296.452 400.443 305.882L365.462 329.403C333.265 351.051 311.146 383.886 303.179 421.858L286.795 499.947C285.661 505.352 289.123 510.653 294.528 511.787C295.22 511.932 295.912 512.002 296.591 512.002C301.223 512.002 305.379 508.766 306.368 504.053L322.752 425.964C329.643 393.123 348.773 364.724 376.621 346L411.602 322.479C417.837 318.285 426.301 319.365 431.288 324.991C436.916 331.345 436.991 340.653 431.635 347.083C431.571 347.153 431.51 347.225 431.446 347.295C431.446 347.295 383.441 398.374 383.26 398.566C379.479 402.592 379.678 408.92 383.703 412.701C387.729 416.482 394.057 416.283 397.838 412.257C397.974 412.113 438.836 368.666 445.477 361.629C446.018 361.056 446.53 360.465 447.028 359.868C458.65 346.96 465.049 330.369 465.049 312.955V189.938C465.049 183.571 469.39 178.161 475.606 176.782C479.619 175.892 483.755 176.857 486.96 179.427C490.164 181.998 492.002 185.829 492.002 189.938V344.99C492.002 361.132 487.063 376.621 477.719 389.784L402.168 496.211C398.971 500.714 400.03 506.957 404.533 510.154C406.291 511.401 408.311 512.001 410.313 512.001C413.443 512.001 416.526 510.535 418.476 507.789L494.027 401.362C505.786 384.797 512.002 365.304 512.002 344.991V189.938C511.999 179.732 507.435 170.216 499.475 163.829Z" fill="#292C40"/>
<path d="M382.658 191.66L364.867 187.41V184.22C376.43 176.12 384.012 162.707 384.012 147.549V124.42C384.012 99.741 363.935 79.664 339.256 79.664C328.181 79.664 318.041 83.716 310.218 90.404C301.508 69.074 280.55 54 256.126 54C231.672 54 210.692 69.113 202.002 90.484C194.167 83.748 183.99 79.662 172.87 79.662C148.191 79.662 128.114 99.739 128.114 124.418V125.955V147.547C128.114 162.705 135.696 176.118 147.259 184.218V187.408L129.468 191.658C108.226 196.733 93.3896 215.53 93.3896 237.37V256.046C93.3896 261.569 97.8676 266.046 103.39 266.046H149.342C149.271 267.259 149.222 268.478 149.222 269.707V305.665C149.222 311.188 153.7 315.665 159.222 315.665H219.332C224.854 315.665 229.332 311.188 229.332 305.665C229.332 300.142 224.854 295.665 219.332 295.665H209V275C209 269.477 204.522 265 199 265C193.478 265 189 269.477 189 275V295.667H169.223V269.709C169.223 250.422 182.323 233.813 201.077 229.319L228.519 222.743L246.884 264.525C248.48 268.156 252.072 270.501 256.037 270.501H256.038C260.004 270.501 263.596 268.157 265.192 264.526L283.538 222.806L310.893 229.341C329.665 233.826 342.776 250.437 342.776 269.738V295.667H322.999V275C322.999 269.477 318.521 265 312.999 265C307.477 265 302.999 269.477 302.999 275V295.667H291.666C286.144 295.667 281.666 300.144 281.666 305.667C281.666 311.19 286.144 315.667 291.666 315.667H352.777C358.299 315.667 362.777 311.19 362.777 305.667V269.738C362.777 268.499 362.727 267.271 362.655 266.048H408.737C414.259 266.048 418.737 261.571 418.737 256.048V237.372C418.737 215.532 403.901 196.734 382.658 191.66ZM339.256 99.662C352.358 99.662 363.114 109.893 363.958 122.785H350.055C338.367 122.785 326.865 119.971 316.526 114.613C320.329 105.825 329.087 99.662 339.256 99.662ZM314.5 146.087C314.512 145.6 314.537 145.115 314.537 144.625V135.719C325.758 140.363 337.825 142.785 350.055 142.785H364.012V147.548C364.012 161.198 352.907 172.304 339.256 172.304C325.605 172.304 314.5 161.198 314.5 147.547V146.087ZM217.716 112.41C217.716 91.231 234.946 74 256.126 74C275.229 74 291.118 88.018 294.052 106.306L277.217 96.415C273.006 93.941 267.624 94.87 264.487 98.615C256.26 108.433 244.195 114.064 231.385 114.064H217.716V112.41V112.41ZM172.871 99.662C183.04 99.662 191.797 105.826 195.601 114.612C185.261 119.97 173.76 122.784 162.072 122.784H148.169C149.013 109.893 159.77 99.662 172.871 99.662ZM148.115 142.784H162.072C174.315 142.784 186.395 140.357 197.627 135.703V147.546C197.627 161.196 186.522 172.302 172.871 172.302C159.22 172.302 148.115 161.198 148.115 147.547V142.784ZM196.417 209.869C176.743 214.583 161.281 228.3 153.922 246.047H113.39V237.371C113.39 224.825 121.912 214.026 134.115 211.111L159.583 205.027C164.084 203.952 167.26 199.929 167.26 195.301V191.939C169.1 192.17 170.97 192.303 172.871 192.303C174.758 192.303 176.615 192.172 178.441 191.944V194.797C178.434 194.946 178.431 195.095 178.43 195.244C178.428 198.525 180.041 201.739 183.003 203.655C184.119 204.378 185.325 204.848 186.556 205.083L201.473 208.657L196.417 209.869ZM224.311 194.345C221.742 193.212 219.064 192.306 216.304 191.645L198.44 187.364V184.248C201.664 181.995 204.579 179.332 207.107 176.33C211.573 183.21 217.441 189.093 224.311 193.574V194.345ZM267.743 209.038L256.041 235.653L244.312 208.97V201.834C248.129 202.621 252.08 203.036 256.126 203.036C260.103 203.036 263.987 202.633 267.743 201.872V209.038V209.038ZM256.126 183.035C234.946 183.036 217.716 165.805 217.716 144.625V134.063H231.385C247.243 134.063 262.321 128.166 273.877 117.648L294.499 129.764V146.088C293.727 166.591 276.816 183.035 256.126 183.035ZM287.743 194.377V193.7C294.669 189.222 300.589 183.324 305.09 176.414C307.601 179.382 310.491 182.016 313.684 184.248V187.364L295.819 191.645C293.035 192.313 290.334 193.23 287.743 194.377ZM398.736 246.047H358.066C350.7 228.3 335.227 214.591 315.541 209.888L310.52 208.689L325.517 205.095C326.765 204.863 327.991 204.387 329.122 203.655C332.079 201.742 333.687 198.528 333.687 195.247C333.687 195.169 333.686 195.09 333.684 195.012V191.944C335.511 192.172 337.367 192.303 339.254 192.303C341.155 192.303 343.025 192.17 344.865 191.939V195.301C344.865 199.929 348.041 203.952 352.542 205.027L378.01 211.111C390.213 214.027 398.736 224.825 398.736 237.371V246.047V246.047Z" fill="#7029FC"/>
<path d="M263.069 298.59C261.2 296.73 258.63 295.67 256 295.67C253.359 295.67 250.79 296.73 248.93 298.59C247.06 300.46 246 303.03 246 305.67C246 308.3 247.06 310.87 248.93 312.74C250.79 314.6 253.36 315.67 256 315.67C258.63 315.67 261.2 314.6 263.069 312.74C264.929 310.87 266 308.3 266 305.67C266 303.03 264.93 300.46 263.069 298.59Z" fill="#292C40"/>
<path d="M255.993 0C250.471 0 245.993 4.477 245.993 10V24.963C245.993 30.486 250.471 34.963 255.993 34.963C261.515 34.963 265.993 30.486 265.993 24.963V10C265.993 4.477 261.516 0 255.993 0Z" fill="#292C40"/>
<path d="M219.157 32.619L208.667 22.139C204.76 18.235 198.429 18.238 194.525 22.145C190.621 26.052 190.625 32.384 194.532 36.287L205.023 46.767C206.975 48.718 209.533 49.693 212.09 49.693C214.651 49.693 217.211 48.715 219.164 46.761C223.066 42.854 223.064 36.522 219.157 32.619Z" fill="#292C40"/>
<path d="M317.222 22.3951C313.315 18.4921 306.982 18.4941 303.08 22.4021L292.671 32.8211C288.768 36.7281 288.771 43.0601 292.678 46.9631C294.631 48.9141 297.188 49.8891 299.746 49.8891C302.307 49.8891 304.868 48.9111 306.82 46.9561L317.229 36.5371C321.132 32.6301 321.129 26.2981 317.222 22.3951Z" fill="#292C40"/>
</g>
<defs>
<clipPath id="clip0">
<rect width="512.002" height="512.002" fill="white"/>
</clipPath>
</defs>
</svg>
